<?xml version="1.0" encoding="UTF-8" ?>
<!DOCTYPE svg PUBLIC "-//W3C//DTD SVG 1.1//EN" "http://www.w3.org/Graphics/SVG/1.1/DTD/svg11.dtd">
<svg width="604pt" height="486pt" viewBox="0 0 604 486" version="1.1" xmlns="http://www.w3.org/2000/svg">
<path fill="#fbfcfc" d=" M 0.00 0.00 L 387.08 0.00 C 374.07 1.15 360.49 3.74 349.62 11.42 C 340.93 18.39 331.71 25.95 327.92 36.82 C 325.63 45.41 324.06 55.10 328.67 63.25 C 329.68 66.15 334.08 68.13 332.54 71.54 C 327.00 75.36 319.08 69.09 313.77 74.00 C 313.22 78.99 316.86 83.43 320.51 86.44 C 323.84 89.34 328.57 88.87 332.41 90.63 C 335.05 94.86 333.13 100.72 336.32 104.71 C 340.96 106.56 346.46 105.57 350.12 102.15 C 354.45 98.09 358.77 93.99 363.62 90.55 C 367.07 92.98 370.80 95.06 373.87 98.00 C 377.31 101.31 381.66 103.43 385.53 106.16 C 388.55 108.38 393.58 106.76 395.41 110.60 C 399.91 117.24 399.26 125.90 398.21 133.47 C 396.65 141.72 395.46 150.23 391.73 157.85 C 388.54 164.66 387.63 172.67 382.19 178.28 C 379.01 182.32 373.51 182.81 368.88 184.02 C 361.85 185.52 355.44 189.37 348.23 190.01 C 343.34 188.60 339.13 185.65 334.75 183.17 C 330.60 180.79 325.64 183.20 321.23 182.06 C 315.54 178.27 313.01 171.42 307.55 167.39 C 305.06 165.55 302.42 163.59 299.28 163.17 C 295.89 164.26 296.47 168.41 294.98 170.98 C 293.30 173.62 291.32 176.06 289.30 178.45 C 286.72 181.50 282.67 182.47 279.03 183.62 C 274.62 185.05 270.35 182.51 266.02 182.13 C 263.18 182.98 260.37 184.17 257.95 185.90 C 254.93 188.87 253.89 193.15 251.75 196.70 C 250.19 199.67 247.59 201.86 245.02 203.93 C 243.42 203.19 241.86 202.31 240.17 201.83 C 235.76 203.35 231.03 207.22 226.29 204.56 C 223.27 202.92 220.01 201.74 217.06 199.99 C 213.92 196.89 212.48 192.50 209.72 189.07 C 200.79 177.19 189.33 167.57 178.50 157.49 C 174.75 153.91 171.31 149.32 165.97 148.15 C 162.90 147.28 159.89 148.94 157.34 150.48 C 149.93 155.21 143.73 161.59 136.31 166.32 C 134.33 167.56 132.42 169.03 131.36 171.17 C 129.62 174.93 125.63 176.55 122.17 178.31 C 117.85 180.35 113.50 182.29 109.14 184.23 C 103.79 186.69 97.48 185.34 92.22 188.11 C 86.02 190.92 81.50 196.19 75.99 200.01 C 74.00 201.71 71.47 200.41 69.29 199.95 C 66.30 201.82 63.69 204.74 59.95 204.98 C 56.18 204.83 55.72 209.25 55.02 211.99 C 53.86 218.87 51.23 225.34 49.10 231.95 C 48.48 233.40 47.91 235.46 46.03 235.63 C 41.67 236.54 37.70 238.74 33.84 240.86 C 29.97 245.12 30.14 251.77 26.00 255.89 C 21.79 259.20 16.09 255.36 11.53 257.78 C 7.02 260.18 4.72 265.03 2.14 269.20 C -0.28 273.09 0.82 277.80 1.14 282.07 C 1.56 285.11 0.69 288.09 0.00 291.02 L 0.00 0.00 Z" />
<path fill="#10105c" d=" M 387.08 0.00 L 389.74 0.00 C 410.98 1.20 430.90 13.95 441.42 32.35 C 445.05 38.94 449.44 45.36 450.74 52.92 C 452.43 63.62 450.41 74.41 449.09 85.03 C 447.93 94.04 445.05 102.76 441.04 110.89 C 438.26 116.60 438.03 123.07 436.16 129.06 C 434.84 133.58 434.59 138.36 435.03 143.03 C 435.64 150.82 439.37 157.85 441.06 165.40 C 443.27 164.91 445.46 164.08 447.75 164.10 C 449.85 164.73 451.80 165.85 453.98 166.27 C 459.91 165.99 465.08 162.60 470.77 161.31 C 473.71 163.73 475.15 167.43 477.25 170.52 C 485.14 166.25 492.21 160.68 499.02 154.88 C 504.16 150.43 511.15 147.11 518.05 149.01 C 524.54 150.87 530.71 153.90 536.28 157.71 C 544.32 163.53 546.66 173.85 552.62 181.39 C 559.13 189.38 566.35 197.27 569.81 207.17 C 571.49 211.37 569.27 215.69 567.05 219.20 C 564.99 222.56 561.14 223.92 557.83 225.68 C 554.27 227.46 551.07 230.22 546.96 230.61 C 543.77 231.36 540.03 231.01 537.39 233.20 C 526.26 243.74 521.60 260.00 524.05 274.99 C 524.57 279.05 525.65 283.01 526.67 286.97 C 528.33 292.86 525.97 299.01 527.41 304.92 C 528.09 307.73 530.20 309.87 532.25 311.78 C 539.63 318.42 548.88 322.40 556.92 328.10 C 560.22 330.54 563.48 333.74 564.11 337.98 C 563.92 341.45 561.78 344.52 561.82 348.01 C 562.43 352.01 565.25 355.19 568.11 357.85 C 576.66 365.31 587.24 369.81 596.49 376.27 C 599.68 378.43 602.54 381.23 604.00 384.87 L 604.00 388.63 C 602.39 397.64 597.17 405.37 594.08 413.86 C 591.45 422.42 594.78 431.24 594.52 439.92 C 594.50 443.66 592.24 447.20 588.87 448.80 C 583.34 451.55 577.03 452.07 570.95 452.25 C 553.97 452.43 537.18 449.07 520.22 448.84 C 510.21 449.79 502.25 458.25 491.92 457.71 C 482.03 456.53 474.08 448.84 464.00 448.46 C 451.90 448.62 441.03 455.31 428.99 455.87 C 420.59 456.20 413.37 450.52 404.98 450.75 C 389.75 450.43 376.26 459.91 361.03 459.43 C 351.00 458.30 342.94 450.94 332.99 449.53 C 326.12 449.11 321.04 454.45 315.23 457.16 C 312.65 458.56 309.17 458.99 307.78 461.92 C 304.78 467.38 303.45 474.27 297.91 477.92 C 289.74 483.39 279.48 482.84 270.09 483.42 C 265.80 483.54 261.78 485.16 257.61 486.00 L 252.40 486.00 C 243.13 484.60 235.57 478.20 230.09 470.94 C 220.90 458.68 215.79 443.90 212.45 429.09 C 210.87 422.48 211.48 415.66 212.22 408.99 C 212.83 403.86 212.23 398.23 208.88 394.08 C 207.23 392.07 204.32 392.66 202.18 393.42 C 196.16 395.56 190.97 399.54 184.88 401.53 C 176.57 404.19 169.17 409.01 162.30 414.30 C 158.83 416.87 154.76 419.83 150.17 418.70 C 144.91 417.29 140.65 413.69 136.42 410.44 C 127.63 403.29 119.42 395.45 111.11 387.75 C 105.39 382.57 97.33 381.31 89.90 380.83 C 68.06 379.99 46.78 386.44 25.04 387.17 C 16.76 388.11 13.21 379.09 10.89 372.79 C 3.44 349.92 1.32 325.72 0.00 301.83 L 0.00 291.02 C 0.69 288.09 1.56 285.11 1.14 282.07 C 0.82 277.80 -0.28 273.09 2.14 269.20 C 4.72 265.03 7.02 260.18 11.53 257.78 C 16.09 255.36 21.79 259.20 26.00 255.89 C 30.14 251.77 29.97 245.12 33.84 240.86 C 37.70 238.74 41.67 236.54 46.03 235.63 C 47.91 235.46 48.48 233.40 49.10 231.95 C 51.23 225.34 53.86 218.87 55.02 211.99 C 55.72 209.25 56.18 204.83 59.95 204.98 C 63.69 204.74 66.30 201.82 69.29 199.95 C 71.47 200.41 74.00 201.71 75.99 200.01 C 81.50 196.19 86.02 190.92 92.22 188.11 C 97.48 185.34 103.79 186.69 109.14 184.23 C 113.50 182.29 117.85 180.35 122.17 178.31 C 125.63 176.55 129.62 174.93 131.36 171.17 C 132.42 169.03 134.33 167.56 136.31 166.32 C 143.73 161.59 149.93 155.21 157.34 150.48 C 159.89 148.94 162.90 147.28 165.97 148.15 C 171.31 149.32 174.75 153.91 178.50 157.49 C 189.33 167.57 200.79 177.19 209.72 189.07 C 212.48 192.50 213.92 196.89 217.06 199.99 C 220.01 201.74 223.27 202.92 226.29 204.56 C 231.03 207.22 235.76 203.35 240.17 201.83 C 241.86 202.31 243.42 203.19 245.02 203.93 C 247.59 201.86 250.19 199.67 251.75 196.70 C 253.89 193.15 254.93 188.87 257.95 185.90 C 260.37 184.17 263.18 182.98 266.02 182.13 C 270.35 182.51 274.62 185.05 279.03 183.62 C 282.67 182.47 286.72 181.50 289.30 178.45 C 291.32 176.06 293.30 173.62 294.98 170.98 C 296.47 168.41 295.89 164.26 299.28 163.17 C 302.42 163.59 305.06 165.55 307.55 167.39 C 313.01 171.42 315.54 178.27 321.23 182.06 C 325.64 183.20 330.60 180.79 334.75 183.17 C 339.13 185.65 343.34 188.60 348.23 190.01 C 355.44 189.37 361.85 185.52 368.88 184.02 C 373.51 182.81 379.01 182.32 382.19 178.28 C 387.63 172.67 388.54 164.66 391.73 157.85 C 395.46 150.23 396.65 141.72 398.21 133.47 C 399.26 125.90 399.91 117.24 395.41 110.60 C 393.58 106.76 388.55 108.38 385.53 106.16 C 381.66 103.43 377.31 101.31 373.87 98.00 C 370.80 95.06 367.07 92.98 363.62 90.55 C 358.77 93.99 354.45 98.09 350.12 102.15 C 346.46 105.57 340.96 106.56 336.32 104.71 C 333.13 100.72 335.05 94.86 332.41 90.63 C 328.57 88.87 323.84 89.34 320.51 86.44 C 316.86 83.43 313.22 78.99 313.77 74.00 C 319.08 69.09 327.00 75.36 332.54 71.54 C 334.08 68.13 329.68 66.15 328.67 63.25 C 324.06 55.10 325.63 45.41 327.92 36.82 C 331.71 25.95 340.93 18.39 349.62 11.42 C 360.49 3.74 374.07 1.15 387.08 0.00 Z" />
<path fill="#fbfcfc" d=" M 389.74 0.00 L 604.00 0.00 L 604.00 384.87 C 602.54 381.23 599.68 378.43 596.49 376.27 C 587.24 369.81 576.66 365.31 568.11 357.85 C 565.25 355.19 562.43 352.01 561.82 348.01 C 561.78 344.52 563.92 341.45 564.11 337.98 C 563.48 333.74 560.22 330.54 556.92 328.10 C 548.88 322.40 539.63 318.42 532.25 311.78 C 530.20 309.87 528.09 307.73 527.41 304.92 C 525.97 299.01 528.33 292.86 526.67 286.97 C 525.65 283.01 524.57 279.05 524.05 274.99 C 521.60 260.00 526.26 243.74 537.39 233.20 C 540.03 231.01 543.77 231.36 546.96 230.61 C 551.07 230.22 554.27 227.46 557.83 225.68 C 561.14 223.92 564.99 222.56 567.05 219.20 C 569.27 215.69 571.49 211.37 569.81 207.17 C 566.35 197.27 559.13 189.38 552.62 181.39 C 546.66 173.85 544.32 163.53 536.28 157.71 C 530.71 153.90 524.54 150.87 518.05 149.01 C 511.15 147.11 504.16 150.43 499.02 154.88 C 492.21 160.68 485.14 166.25 477.25 170.52 C 475.15 167.43 473.71 163.73 470.77 161.31 C 465.08 162.60 459.91 165.99 453.98 166.27 C 451.80 165.85 449.85 164.73 447.75 164.10 C 445.46 164.08 443.27 164.91 441.06 165.40 C 439.37 157.85 435.64 150.82 435.03 143.03 C 434.59 138.36 434.84 133.58 436.16 129.06 C 438.03 123.07 438.26 116.60 441.04 110.89 C 445.05 102.76 447.93 94.04 449.09 85.03 C 450.41 74.41 452.43 63.62 450.74 52.92 C 449.44 45.36 445.05 38.94 441.42 32.35 C 430.90 13.95 410.98 1.20 389.74 0.00 Z" />
<path fill="#fbfcfc" d=" M 370.09 12.17 C 374.70 9.87 379.93 9.63 384.97 9.31 C 391.64 8.99 398.55 9.37 404.71 12.17 C 409.16 14.43 414.24 15.45 418.06 18.85 C 423.72 22.35 426.40 28.71 430.92 33.35 C 434.84 37.39 436.87 42.72 438.88 47.87 C 439.76 50.14 440.29 52.57 440.12 55.02 C 439.69 63.51 440.13 72.17 437.62 80.41 C 436.72 88.07 434.85 95.57 432.49 102.91 C 431.17 106.64 428.97 110.02 427.81 113.82 C 425.17 122.24 424.96 131.19 424.88 139.93 C 425.75 145.60 426.88 151.22 426.67 157.00 C 429.29 163.68 431.80 170.42 434.83 176.94 C 436.64 183.04 440.27 188.30 442.87 194.06 C 444.65 198.16 448.01 201.25 450.00 205.23 C 448.19 209.55 443.13 211.12 441.03 215.32 C 443.38 217.87 446.35 219.81 448.42 222.64 C 445.10 224.30 438.43 223.72 438.52 228.66 C 437.12 227.65 435.65 226.74 434.18 225.85 C 431.33 226.16 428.44 226.47 425.80 227.65 C 426.37 232.47 426.28 237.35 426.80 242.17 C 426.93 245.59 430.85 246.89 431.45 250.12 C 433.94 256.56 434.95 263.90 439.79 269.16 C 439.70 271.16 439.63 273.16 439.53 275.16 C 435.98 274.69 432.64 273.03 429.00 273.22 C 423.68 273.51 418.34 273.50 413.08 274.42 C 405.21 273.54 397.40 271.69 390.09 268.62 C 382.08 263.61 376.51 255.63 372.60 247.18 C 369.98 242.74 370.00 237.47 369.21 232.52 C 368.13 224.78 369.06 216.58 373.29 209.87 C 371.29 205.93 368.52 201.62 364.01 200.43 C 361.11 199.63 357.56 202.14 355.32 199.48 C 358.06 198.70 360.92 198.46 363.67 197.68 C 366.07 196.75 368.36 195.49 370.93 195.04 C 377.97 193.66 384.97 191.27 390.73 186.88 C 393.72 183.55 396.69 180.14 399.26 176.48 C 403.16 165.87 406.40 155.00 408.96 143.98 C 409.99 138.55 412.94 133.63 413.10 128.02 C 414.48 120.39 411.03 112.34 414.45 105.03 C 415.84 101.63 419.36 100.17 422.14 98.17 C 426.46 93.76 429.16 87.96 430.77 82.06 C 431.62 79.13 431.44 75.19 428.65 73.32 C 425.03 72.21 421.02 70.79 417.33 72.50 C 415.38 72.99 414.41 75.02 414.45 76.91 C 414.24 81.28 413.38 85.94 410.36 89.30 C 407.91 90.75 405.29 91.90 402.87 93.41 C 397.27 93.05 391.61 93.72 386.08 92.56 C 381.63 91.91 375.38 90.23 372.97 95.40 C 370.31 93.55 367.61 91.73 364.92 89.92 C 371.89 86.51 379.40 84.27 387.07 83.15 C 394.94 82.04 402.93 79.80 409.60 75.38 C 405.03 75.73 400.38 76.13 395.91 74.83 C 391.50 74.04 388.00 71.09 384.14 69.07 C 379.86 67.97 375.37 67.68 371.00 68.34 C 365.15 68.65 361.59 63.62 357.08 60.85 C 353.74 58.02 349.17 57.68 345.50 55.48 C 343.60 53.97 341.98 52.05 340.85 49.90 C 340.25 45.10 341.42 40.05 344.08 35.99 C 346.88 31.60 349.19 26.74 353.18 23.25 C 355.31 21.38 357.20 19.21 359.49 17.52 C 362.89 15.49 366.54 13.93 370.09 12.17 Z" />
<path fill="#10105c" d=" M 365.43 55.94 C 365.69 51.85 369.98 48.84 373.92 49.43 C 377.89 49.72 381.86 50.73 385.51 52.33 C 388.56 53.62 389.10 57.05 389.41 59.96 C 389.01 60.48 388.21 61.54 387.81 62.06 C 381.87 63.81 375.51 63.82 370.02 66.95 C 366.78 64.34 364.56 60.17 365.43 55.94 Z" />
<path fill="#fbfcfc" d=" M 497.95 164.88 C 503.07 159.34 511.39 160.16 518.14 161.21 C 525.16 162.74 528.25 169.90 531.45 175.54 C 537.27 187.82 549.35 196.23 553.37 209.50 C 554.42 212.56 552.80 215.66 551.02 218.07 C 549.40 220.37 546.27 219.91 543.86 220.44 C 540.41 220.74 537.44 222.60 534.44 224.14 C 529.80 226.04 523.37 224.45 520.13 229.12 C 512.36 238.87 509.96 251.77 509.80 263.95 C 509.83 271.67 510.85 279.42 513.01 286.85 C 515.90 295.01 509.90 303.64 513.22 311.72 C 518.29 319.25 527.54 321.94 535.40 325.58 C 540.10 327.74 545.78 329.57 548.24 334.54 C 550.44 339.15 545.37 343.44 547.09 348.08 C 548.39 351.98 551.37 355.01 554.43 357.62 C 562.59 364.37 572.48 368.51 580.99 374.74 C 583.83 376.98 587.36 379.95 586.72 384.01 C 585.50 393.31 579.58 401.04 576.94 409.89 C 575.07 417.58 577.86 425.33 577.78 433.06 C 577.88 436.65 575.48 439.92 572.20 441.23 C 564.87 444.24 556.76 444.01 549.00 443.77 C 535.95 443.11 523.00 441.20 509.95 440.72 C 501.16 440.19 493.86 447.03 485.04 446.22 C 476.52 445.04 469.55 439.09 461.11 437.64 C 448.27 436.42 436.81 444.41 424.10 444.53 C 416.50 444.05 409.80 439.19 402.07 439.62 C 387.84 439.50 375.21 448.32 360.96 447.83 C 350.44 446.56 341.96 437.71 331.03 438.47 C 322.51 439.40 314.56 442.97 306.44 445.49 C 301.09 449.64 301.46 457.83 296.09 462.11 C 287.98 469.55 276.34 468.80 266.53 472.24 C 259.22 474.60 251.07 472.52 245.13 467.88 C 236.23 461.03 230.71 450.84 226.64 440.58 C 222.93 430.46 220.00 419.85 220.10 408.99 C 219.68 400.28 220.86 390.76 216.15 382.96 C 214.59 380.06 210.88 380.01 208.10 380.80 C 200.01 383.10 193.05 388.15 185.08 390.78 C 176.28 393.60 168.76 399.10 161.16 404.16 C 157.87 406.44 153.49 407.18 149.89 405.16 C 140.42 400.33 132.95 392.54 124.99 385.66 C 118.94 380.57 113.98 373.49 105.91 371.50 C 91.78 367.82 77.06 370.36 62.85 372.20 C 52.59 373.65 42.33 375.63 31.93 375.67 C 25.97 376.03 22.88 369.82 20.87 365.18 C 14.69 349.22 12.95 331.98 11.54 315.06 C 11.33 308.03 10.32 300.84 12.13 293.95 C 13.22 288.48 10.01 282.43 13.24 277.38 C 15.38 273.97 17.18 270.06 20.61 267.75 C 24.78 265.00 29.95 268.30 34.25 266.15 C 40.83 262.46 38.33 251.07 46.55 249.36 C 50.12 247.90 52.29 244.45 55.44 242.37 C 57.25 241.33 59.52 241.45 61.26 240.28 C 63.30 236.38 63.14 231.78 64.79 227.73 C 67.09 222.28 67.28 216.21 69.73 210.81 C 74.08 211.79 76.92 208.26 80.25 206.27 C 82.32 206.55 84.52 207.63 86.48 206.31 C 92.26 202.67 96.72 197.04 103.15 194.38 C 107.93 192.18 113.51 193.45 118.25 191.11 C 124.54 188.16 131.16 185.80 136.98 181.95 C 139.79 180.37 139.86 176.37 142.84 175.01 C 147.93 172.05 152.70 168.57 157.85 165.69 C 160.90 164.06 164.54 162.62 167.99 163.89 C 171.82 165.02 174.39 168.29 177.15 170.97 C 189.36 182.63 203.04 193.34 211.84 208.01 C 213.98 211.34 216.64 214.98 220.84 215.64 C 229.33 218.00 237.82 214.26 245.07 210.10 C 246.44 210.90 247.81 211.70 249.19 212.49 C 251.63 210.89 254.13 209.18 255.76 206.69 C 258.40 203.12 259.35 198.55 262.23 195.14 C 264.47 193.45 267.20 192.45 269.85 191.56 C 276.61 193.69 284.41 195.93 290.97 191.96 C 294.11 189.23 295.25 184.98 297.77 181.74 C 299.54 179.60 298.96 176.28 300.97 174.35 C 303.46 173.94 305.60 175.98 307.61 177.22 C 313.57 181.00 315.82 188.53 322.01 192.03 C 324.99 192.42 327.78 190.44 330.75 190.52 C 332.67 191.26 334.40 192.39 336.17 193.44 C 330.06 193.80 324.02 194.81 318.03 196.04 C 316.48 197.32 315.28 199.40 313.10 199.63 C 305.91 201.00 298.53 200.61 291.25 200.82 C 290.50 201.97 289.75 203.12 289.01 204.27 C 293.38 208.84 300.21 208.29 306.01 208.74 C 309.95 208.35 312.60 212.90 316.60 211.82 C 322.34 210.70 328.14 211.71 333.89 211.78 C 337.63 210.82 341.38 211.49 344.96 212.73 C 341.52 215.83 337.67 218.77 333.09 219.81 C 325.62 219.84 318.47 217.19 311.11 216.22 C 310.47 216.75 309.19 217.80 308.55 218.32 C 310.26 221.13 312.35 223.90 315.36 225.41 C 319.56 227.60 324.43 227.40 329.01 227.73 C 332.32 228.00 335.21 226.15 338.27 225.25 C 343.67 223.47 348.82 220.87 353.10 217.08 C 353.56 217.39 354.48 218.01 354.94 218.32 C 351.31 221.93 348.08 226.33 343.11 228.18 C 340.43 229.24 338.15 231.07 335.56 232.29 C 331.35 233.92 327.32 236.05 323.57 238.56 C 321.28 241.57 325.49 243.56 327.80 244.42 C 333.06 244.28 336.09 239.44 340.90 238.10 C 343.99 237.06 346.87 235.48 349.29 233.28 C 350.80 231.70 353.00 231.57 355.05 231.46 C 359.32 241.39 360.42 252.88 367.42 261.52 C 370.33 264.91 372.56 269.14 376.61 271.37 C 381.31 273.84 385.20 277.65 390.19 279.62 C 392.87 280.87 396.41 281.69 397.48 284.85 C 399.44 289.95 398.77 295.74 397.34 300.90 C 396.20 304.41 396.28 308.34 394.02 311.43 C 385.83 309.62 377.36 310.03 369.15 311.58 C 366.06 310.56 363.36 308.45 360.06 308.05 C 356.35 307.06 352.68 308.91 349.77 311.05 C 345.29 311.40 339.90 311.83 337.75 316.50 C 338.65 319.26 338.33 322.12 337.40 324.83 C 341.17 327.88 346.30 326.68 350.76 327.39 C 349.99 329.88 348.50 333.11 351.08 335.09 C 353.96 336.06 357.05 336.17 359.92 337.16 C 362.39 339.26 363.66 342.90 367.11 343.75 C 376.31 344.80 384.04 338.86 391.55 334.51 C 394.42 333.00 395.67 329.98 397.26 327.36 C 398.77 324.76 401.98 323.99 403.69 321.58 C 405.88 318.45 409.51 316.74 411.63 313.55 C 413.80 310.32 414.96 306.54 416.11 302.86 C 417.27 296.49 414.64 289.62 417.35 283.50 C 424.77 284.94 432.20 283.09 439.11 280.39 C 442.15 278.87 445.53 280.41 448.72 279.74 C 452.83 279.21 455.62 275.87 458.65 273.39 C 457.10 271.29 455.56 269.19 454.40 266.85 C 449.42 256.84 443.24 247.41 439.39 236.88 C 438.70 234.96 440.02 233.08 440.43 231.25 C 442.82 234.65 446.58 237.49 446.95 241.94 C 447.45 246.40 450.09 250.08 451.95 254.04 C 454.63 259.29 457.74 264.30 460.30 269.61 C 461.68 272.12 460.62 275.28 462.36 277.66 C 464.83 281.74 467.42 285.78 469.24 290.22 C 473.62 292.37 478.40 293.90 483.34 293.46 C 484.68 290.03 485.64 284.61 480.80 283.60 C 480.07 281.04 478.93 278.62 478.27 276.05 C 478.31 272.68 479.26 268.95 477.15 265.98 C 473.00 259.78 469.57 252.94 468.33 245.53 C 471.13 244.84 472.63 247.82 474.46 249.38 C 481.16 255.87 486.50 263.52 492.83 270.33 C 496.59 270.31 501.62 270.03 503.36 266.06 C 504.03 260.91 498.94 256.97 499.06 251.86 C 499.22 249.46 501.65 248.26 503.18 246.74 C 503.17 244.29 504.55 241.33 502.99 239.21 C 499.22 236.53 494.68 235.01 491.18 231.91 C 492.80 232.52 494.36 233.32 496.02 233.89 C 497.68 233.98 499.01 232.74 500.48 232.13 C 500.93 232.40 501.83 232.95 502.28 233.22 C 503.87 232.56 505.44 231.86 507.00 231.12 C 507.95 229.36 508.18 226.09 510.87 226.37 C 514.36 226.71 517.36 225.17 519.39 222.38 C 521.78 218.92 526.35 219.44 529.84 217.91 C 535.94 215.60 542.41 214.50 548.54 212.32 C 549.42 210.27 547.58 208.07 545.83 207.16 C 543.91 205.92 541.63 206.77 539.56 206.92 C 538.20 203.95 541.53 202.90 543.28 201.24 C 544.62 199.48 545.16 196.34 543.05 194.93 C 541.50 194.12 539.70 193.82 537.98 193.82 C 535.28 195.13 537.26 199.09 535.16 200.99 C 531.86 204.09 528.80 207.64 524.64 209.60 C 520.07 211.90 514.68 214.61 509.59 212.27 C 509.79 210.96 510.07 209.66 510.43 208.37 C 517.17 201.31 526.77 196.47 530.55 186.99 C 531.41 183.64 530.57 179.38 528.06 176.93 C 524.95 174.79 524.49 179.88 524.06 181.86 C 523.26 182.62 522.47 183.38 521.68 184.14 C 521.56 186.61 522.05 189.38 520.45 191.49 C 516.92 195.38 512.83 198.69 508.48 201.61 C 507.55 202.12 506.60 202.97 505.47 202.71 C 506.50 199.53 505.71 196.28 505.93 193.09 C 509.43 188.28 517.27 187.40 518.99 181.08 C 519.06 178.69 519.97 175.69 518.35 173.68 C 513.73 174.65 510.17 178.10 505.66 179.38 C 505.57 177.08 505.49 174.79 505.37 172.50 C 502.39 171.57 499.12 171.54 496.31 172.99 C 494.28 180.01 494.09 187.80 490.03 194.08 C 488.66 196.45 485.49 195.82 483.45 197.20 C 480.18 199.31 477.30 201.94 474.27 204.37 C 472.28 205.36 469.99 205.60 467.94 206.48 C 471.16 209.50 475.67 210.73 479.96 211.17 C 482.79 211.41 484.62 209.29 486.11 207.24 C 486.59 207.93 487.54 209.31 488.01 210.01 C 485.46 213.50 481.93 216.01 478.55 218.63 C 475.74 216.02 473.55 212.85 470.86 210.15 C 463.52 204.06 458.47 195.83 452.46 188.53 C 449.75 185.37 448.31 181.42 446.07 177.96 C 447.92 179.05 449.67 180.72 451.95 180.72 C 457.02 180.70 461.70 178.46 466.36 176.72 C 468.95 179.62 470.48 183.36 473.46 185.92 C 483.64 181.69 490.50 172.59 497.95 164.88 Z" />
<path fill="#10105c" d=" M 304.03 230.75 C 304.41 230.43 305.18 229.81 305.56 229.50 C 307.67 229.56 309.79 229.58 311.91 229.66 C 311.26 232.33 311.06 235.85 308.21 237.20 C 302.67 239.50 296.21 236.90 290.79 239.71 C 287.93 241.23 287.36 244.66 286.60 247.50 C 290.61 243.20 296.93 241.19 302.56 243.35 C 312.19 246.85 316.04 260.06 310.12 268.33 C 304.65 277.06 290.51 278.00 283.95 270.09 C 279.92 265.39 280.25 258.80 279.93 253.00 C 280.09 246.80 280.40 239.71 285.04 235.02 C 290.11 230.27 297.59 230.70 304.03 230.75 Z" />
<path fill="#10105c" d=" M 76.47 242.47 C 86.24 242.46 96.00 242.42 105.76 242.44 C 105.77 245.04 105.77 247.64 105.75 250.25 C 102.43 250.26 99.11 250.25 95.80 250.24 C 95.83 258.40 95.82 266.56 95.82 274.72 C 92.69 274.71 89.57 274.71 86.44 274.75 C 86.41 266.60 86.41 258.45 86.45 250.31 C 83.13 250.24 79.81 250.24 76.49 250.29 C 76.48 247.68 76.47 245.07 76.47 242.47 Z" />
<path fill="#10105c" d=" M 106.80 242.46 C 110.14 242.43 113.47 242.44 116.81 242.46 C 119.27 249.35 121.47 256.32 123.89 263.22 C 126.17 256.30 128.46 249.37 130.72 242.43 C 133.99 242.43 137.27 242.42 140.55 242.43 C 136.11 254.30 131.81 266.23 127.45 278.14 C 126.30 281.13 124.80 284.31 121.87 285.92 C 118.23 287.97 113.87 287.44 109.91 286.93 C 109.60 284.40 109.32 281.87 109.02 279.34 C 111.31 279.39 113.74 280.04 115.94 279.10 C 117.49 277.99 118.10 276.08 119.00 274.48 C 114.89 263.83 110.95 253.10 106.80 242.46 Z" />
<path fill="#10105c" d=" M 152.00 245.66 C 154.58 243.63 157.49 241.58 160.93 241.70 C 166.19 241.49 171.09 244.98 173.17 249.71 C 175.11 254.12 175.14 259.16 174.32 263.84 C 173.17 269.77 168.18 275.25 161.88 275.46 C 158.40 275.89 155.35 273.94 152.67 271.98 C 152.76 276.85 152.69 281.71 152.75 286.58 C 149.61 286.58 146.46 286.58 143.32 286.58 C 143.34 271.87 143.26 257.16 143.37 242.45 C 146.34 242.44 149.32 242.45 152.30 242.47 C 152.22 243.27 152.08 244.86 152.00 245.66 Z" />
<path fill="#10105c" d=" M 244.11 242.48 C 247.44 242.42 250.78 242.42 254.12 242.48 C 256.45 249.38 258.67 256.33 261.15 263.19 C 263.41 256.29 265.67 249.38 267.91 242.47 C 271.19 242.43 274.47 242.42 277.75 242.46 C 273.34 254.23 269.09 266.05 264.79 277.85 C 263.60 280.98 262.09 284.38 258.96 286.00 C 255.36 287.93 251.10 287.45 247.21 286.93 C 246.84 284.40 246.52 281.88 246.21 279.35 C 248.28 279.39 250.42 279.90 252.47 279.36 C 254.80 278.16 256.77 275.16 255.49 272.55 C 251.72 262.52 247.85 252.52 244.11 242.48 Z" />
<path fill="#10105c" d=" M 179.82 242.47 C 182.97 242.45 186.11 242.44 189.26 242.42 C 189.29 246.80 189.12 251.19 189.44 255.56 C 193.13 252.70 193.00 247.40 196.10 244.10 C 198.73 241.70 202.56 242.34 205.80 242.34 C 205.82 244.53 205.82 246.73 205.76 248.93 C 204.28 249.03 202.81 249.22 201.36 249.49 C 199.74 252.30 198.90 255.53 196.83 258.10 C 201.89 262.38 204.56 268.80 206.79 274.87 C 203.60 274.72 200.41 274.73 197.22 274.66 C 194.69 270.08 193.80 264.21 189.39 260.96 C 189.14 265.54 189.27 270.12 189.27 274.71 C 186.12 274.73 182.97 274.76 179.82 274.69 C 179.85 263.95 179.84 253.21 179.82 242.47 Z" />
<path fill="#10105c" d=" M 213.13 242.46 C 222.72 242.43 232.30 242.41 241.89 242.48 C 241.85 253.23 241.95 263.97 241.84 274.71 C 238.73 274.73 235.62 274.72 232.51 274.73 C 232.52 266.59 232.48 258.46 232.54 250.32 C 229.17 250.30 225.80 250.31 222.44 250.26 C 222.04 257.28 223.53 264.63 221.21 271.40 C 218.81 276.51 212.42 275.02 207.90 275.26 C 207.60 272.69 207.32 270.11 207.24 267.52 C 209.06 267.54 210.88 267.58 212.71 267.60 C 213.58 259.25 212.99 250.83 213.13 242.46 Z" />
<path fill="#fbfcfc" d=" M 157.52 249.57 C 161.12 248.51 164.56 251.53 164.99 255.04 C 165.53 259.21 165.82 265.00 161.48 267.28 C 157.75 269.05 153.48 265.88 153.05 262.04 C 152.07 257.65 152.32 251.09 157.52 249.57 Z" />
<path fill="#fbfcfc" d=" M 292.45 251.63 C 295.44 248.96 300.49 250.32 302.10 253.87 C 304.59 258.60 303.08 266.62 296.96 267.46 C 288.97 267.99 287.15 255.90 292.45 251.63 Z" />
<path fill="#10105c" d=" M 444.19 281.09 C 447.57 279.47 451.74 282.28 452.02 285.88 C 451.78 293.44 457.89 298.81 460.82 305.27 C 463.04 310.40 466.42 314.86 469.75 319.30 C 477.81 322.61 486.88 323.18 494.74 327.17 C 500.64 330.38 507.42 331.59 513.29 334.87 C 514.98 335.72 515.62 337.66 516.68 339.11 C 514.81 342.94 510.35 342.29 506.98 341.38 C 506.01 342.10 505.05 342.83 504.09 343.56 C 502.43 343.04 500.84 341.73 499.02 342.18 C 493.87 343.24 489.80 338.95 484.97 338.08 C 486.25 340.29 489.97 341.72 489.08 344.78 C 486.85 347.45 483.21 347.06 480.17 346.44 C 475.56 345.83 473.00 341.29 469.00 339.43 C 465.24 340.07 462.99 344.44 459.03 344.77 C 455.77 344.90 451.70 343.58 450.92 339.99 C 449.73 335.09 449.35 330.02 449.23 325.00 C 448.90 322.78 450.86 321.34 452.00 319.73 C 450.57 316.10 448.21 312.94 446.87 309.28 C 445.63 305.94 444.13 302.71 442.63 299.49 C 441.02 296.12 440.84 292.29 439.36 288.87 C 438.74 286.73 436.03 286.88 434.37 285.99 C 434.61 285.27 435.11 283.81 435.36 283.08 C 438.35 282.64 441.39 282.32 444.19 281.09 Z" />
<path fill="#10105c" d=" M 304.25 283.81 C 307.98 283.66 311.71 283.55 315.44 283.47 C 316.64 288.51 316.58 294.20 313.47 298.57 C 309.07 305.56 298.26 308.98 291.47 303.43 C 287.55 300.17 287.75 294.55 288.67 290.01 C 291.64 289.66 294.61 289.25 297.57 288.81 C 298.11 291.26 300.21 292.77 302.61 291.49 C 304.45 289.44 303.85 286.34 304.25 283.81 Z" />
<path fill="#10105c" d=" M 36.68 300.13 C 36.64 296.28 36.64 292.44 36.65 288.59 C 53.66 288.61 70.66 288.57 87.66 288.51 C 87.63 292.61 87.64 296.71 87.64 300.82 C 75.88 300.50 64.10 299.99 52.34 299.91 C 52.21 317.64 52.32 335.38 52.30 353.12 C 54.28 353.12 56.26 353.15 58.24 353.19 C 58.23 356.88 58.25 360.57 58.30 364.26 C 51.17 364.21 44.05 364.14 36.92 364.15 C 36.64 360.63 36.31 357.13 36.02 353.62 C 37.54 353.60 39.06 353.59 40.59 353.59 C 40.42 335.76 40.22 317.94 40.11 300.12 C 39.25 300.12 37.54 300.13 36.68 300.13 Z" />
<path fill="#10105c" d=" M 174.30 300.58 C 179.79 299.38 185.27 298.14 190.77 297.00 C 191.81 306.63 192.54 316.30 193.44 325.95 C 197.39 316.69 202.94 307.15 212.22 302.41 C 215.91 305.71 219.10 309.57 223.14 312.47 C 217.11 316.20 210.62 319.87 206.67 325.99 C 204.61 329.07 203.24 333.32 205.25 336.77 C 207.50 341.02 210.52 344.93 214.18 348.06 C 218.25 348.43 222.41 347.25 226.53 347.07 C 226.92 351.22 227.32 355.38 227.51 359.55 C 221.63 359.74 215.74 359.79 209.86 360.14 C 204.31 353.77 198.80 347.36 193.20 341.03 C 193.64 348.27 193.75 355.52 194.21 362.76 C 190.41 363.01 186.61 363.15 182.81 363.17 C 182.10 345.74 181.34 328.32 180.59 310.89 C 178.98 311.24 177.36 311.53 175.76 311.90 C 175.31 308.12 174.80 304.35 174.30 300.58 Z" />
<path fill="#fbfcfc" d=" M 0.00 301.83 C 1.32 325.72 3.44 349.92 10.89 372.79 C 13.21 379.09 16.76 388.11 25.04 387.17 C 46.78 386.44 68.06 379.99 89.90 380.83 C 97.33 381.31 105.39 382.57 111.11 387.75 C 119.42 395.45 127.63 403.29 136.42 410.44 C 140.65 413.69 144.91 417.29 150.17 418.70 C 154.76 419.83 158.83 416.87 162.30 414.30 C 169.17 409.01 176.57 404.19 184.88 401.53 C 190.97 399.54 196.16 395.56 202.18 393.42 C 204.32 392.66 207.23 392.07 208.88 394.08 C 212.23 398.23 212.83 403.86 212.22 408.99 C 211.48 415.66 210.87 422.48 212.45 429.09 C 215.79 443.90 220.90 458.68 230.09 470.94 C 235.57 478.20 243.13 484.60 252.40 486.00 L 0.00 486.00 L 0.00 301.83 Z" />
<path fill="#10105c" d=" M 312.16 304.66 C 315.96 304.63 319.76 304.72 323.55 304.72 C 323.34 319.01 323.29 333.30 323.26 347.59 C 326.03 346.52 328.81 345.46 331.60 344.40 C 332.24 349.64 332.56 354.92 333.26 360.16 C 327.45 360.21 321.64 360.38 315.83 360.49 C 315.49 358.72 315.16 356.96 314.84 355.20 C 308.16 359.98 299.22 362.10 291.30 359.44 C 284.83 357.12 281.13 350.49 279.92 344.04 C 277.35 331.22 279.72 318.11 281.22 305.32 C 285.12 305.31 289.01 305.75 292.91 305.90 C 292.86 316.65 290.53 327.29 291.21 338.05 C 291.37 341.83 293.05 346.27 297.04 347.41 C 303.51 349.14 309.57 343.66 311.47 337.86 C 311.89 326.81 311.97 315.73 312.16 304.66 Z" />
<path fill="#10105c" d=" M 259.82 304.60 C 263.60 304.63 267.37 304.70 271.15 304.75 C 271.17 319.03 270.84 333.31 270.80 347.59 C 273.62 346.55 276.42 345.50 279.22 344.43 C 279.77 349.67 280.34 354.90 280.82 360.15 C 275.01 360.20 269.21 360.42 263.40 360.47 C 263.07 358.67 262.76 356.87 262.45 355.08 C 256.05 360.05 247.24 361.86 239.43 359.64 C 233.22 357.58 229.24 351.53 227.81 345.39 C 224.76 332.10 227.49 318.51 228.68 305.17 C 232.63 305.43 236.58 305.69 240.53 305.88 C 240.51 316.62 238.19 327.25 238.80 338.00 C 239.02 341.72 240.49 346.17 244.46 347.33 C 250.96 349.28 257.12 343.75 259.07 337.92 C 259.58 326.83 259.58 315.71 259.82 304.60 Z" />
<path fill="#10105c" d=" M 143.61 311.48 C 150.26 308.46 158.16 309.28 164.69 312.20 C 171.03 315.14 174.15 322.32 174.14 329.03 C 173.98 342.16 177.85 354.93 178.10 368.03 C 177.91 376.82 174.84 386.20 167.67 391.75 C 162.56 395.89 155.12 396.33 149.22 393.69 C 141.92 390.50 136.17 384.77 130.75 379.09 C 133.89 376.81 136.99 374.46 140.09 372.12 C 145.09 376.96 150.65 382.55 158.00 383.09 C 162.62 383.38 166.08 379.22 167.00 375.05 C 168.78 367.72 166.13 360.38 164.72 353.23 C 160.74 357.82 155.29 361.60 149.03 361.76 C 143.51 361.91 137.16 361.11 133.42 356.57 C 128.71 350.87 128.70 343.03 128.32 336.02 C 128.33 331.64 127.54 326.84 129.96 322.91 C 133.09 317.72 138.12 313.90 143.61 311.48 Z" />
<path fill="#10105c" d=" M 100.62 314.61 C 104.72 315.22 109.32 313.90 113.14 315.60 C 112.87 326.35 110.75 337.20 112.60 347.91 C 117.28 347.14 121.94 346.23 126.59 345.29 C 127.53 349.75 128.33 354.24 129.22 358.71 C 121.30 359.91 113.35 360.93 105.44 362.18 C 105.14 360.46 104.84 358.76 104.54 357.05 C 96.33 362.11 85.78 365.38 76.46 361.42 C 69.27 358.57 64.90 350.67 65.66 343.06 C 67.07 327.28 84.55 314.63 99.96 319.74 C 100.19 318.02 100.41 316.32 100.62 314.61 Z" />
<path fill="#fbfcfc" d=" M 149.54 320.70 C 154.19 319.48 159.78 321.37 162.27 325.59 C 163.39 328.64 162.73 332.02 162.48 335.18 C 161.99 340.39 159.19 345.96 153.95 347.73 C 150.76 348.64 146.62 349.33 144.08 346.63 C 141.01 343.21 141.18 338.31 141.11 334.01 C 140.85 328.45 144.09 322.51 149.54 320.70 Z" />
<path fill="#fbfcfc" d=" M 84.50 332.73 C 91.71 328.75 101.61 334.97 101.61 343.04 C 100.32 346.54 96.27 347.71 93.19 349.15 C 88.88 351.22 82.86 351.50 79.62 347.44 C 76.13 342.38 79.32 335.22 84.50 332.73 Z" />
<path fill="#10105c" d=" M 387.46 346.75 C 392.09 344.68 398.18 347.98 399.06 352.97 C 399.31 359.12 391.44 364.97 386.00 360.81 C 380.87 357.46 381.96 349.10 387.46 346.75 Z" />
<path fill="#10105c" d=" M 368.33 347.46 C 373.51 345.55 380.49 350.25 379.25 356.04 C 378.12 359.63 374.86 362.70 371.06 363.20 C 367.11 363.27 363.47 360.00 363.06 356.09 C 362.60 352.46 364.97 348.78 368.33 347.46 Z" />
<path fill="#10105c" d=" M 446.45 362.14 C 451.93 363.30 457.38 364.61 462.88 365.70 C 462.46 369.48 461.99 373.25 461.44 377.01 C 459.81 376.70 458.20 376.39 456.59 376.08 C 456.00 393.49 455.12 410.89 454.39 428.29 C 450.64 428.20 446.90 428.17 443.17 428.18 C 443.28 420.52 443.83 412.87 443.94 405.21 C 438.04 405.33 432.14 405.30 426.24 405.40 C 426.58 413.02 426.80 420.65 427.26 428.26 C 423.43 428.34 419.62 428.42 415.80 428.51 C 415.14 411.08 414.34 393.65 413.62 376.22 C 412.02 376.59 410.43 376.96 408.84 377.33 C 408.32 373.51 407.79 369.69 407.35 365.87 C 412.91 364.81 418.41 363.40 423.99 362.38 C 424.52 372.47 425.79 382.50 426.58 392.57 C 432.23 392.88 437.90 393.08 443.57 392.87 C 444.59 382.63 445.36 372.37 446.45 362.14 Z" />
<path fill="#10105c" d=" M 512.74 365.99 C 518.26 364.93 523.73 363.60 529.24 362.43 C 530.11 372.03 531.02 381.62 531.87 391.22 C 536.00 382.08 541.39 372.47 550.75 367.86 C 554.35 371.29 557.58 375.15 561.72 377.98 C 554.71 382.07 547.04 386.57 543.58 394.29 C 540.52 401.97 547.62 408.58 552.55 413.51 C 556.57 414.00 560.84 412.66 564.97 412.54 C 565.32 416.73 565.71 420.92 565.90 425.13 C 559.98 425.14 554.07 425.45 548.15 425.49 C 542.71 419.16 537.22 412.87 531.70 406.62 C 531.92 413.87 532.33 421.11 532.57 428.36 C 528.81 428.43 525.05 428.50 521.29 428.60 C 520.47 411.19 519.73 393.78 519.06 376.36 C 517.44 376.70 515.82 377.05 514.21 377.40 C 513.67 373.60 513.25 369.79 512.74 365.99 Z" />
<path fill="#10105c" d=" M 357.50 387.12 C 360.55 378.36 368.70 371.88 377.82 370.52 C 385.92 369.29 395.12 370.06 401.57 375.61 C 408.04 380.98 410.13 389.70 410.27 397.76 C 396.94 400.07 383.53 401.87 370.16 403.90 C 370.53 407.27 370.53 411.32 373.41 413.68 C 376.24 416.15 380.31 416.01 383.78 415.32 C 391.97 413.57 399.42 409.62 407.07 406.37 C 409.13 409.77 411.26 413.12 413.28 416.54 C 403.95 422.69 393.38 427.61 382.07 428.22 C 373.45 428.76 364.17 425.04 359.65 417.40 C 354.30 408.37 354.07 396.86 357.50 387.12 Z" />
<path fill="#10105c" d=" M 306.78 373.55 C 312.86 370.87 321.53 369.77 325.84 376.04 C 330.48 373.96 335.84 372.17 340.86 374.00 C 346.07 376.32 348.91 381.81 350.34 387.06 C 353.72 399.23 353.08 411.98 353.18 424.48 C 349.25 424.82 345.33 425.22 341.40 425.53 C 341.44 415.71 342.02 405.79 340.39 396.06 C 339.59 392.57 338.53 388.68 335.48 386.48 C 332.74 384.68 328.38 386.36 328.38 389.85 C 327.96 401.25 328.39 412.68 327.97 424.08 C 323.72 424.25 319.47 424.52 315.22 424.76 C 315.45 412.50 315.84 400.24 316.14 387.98 C 316.67 384.95 313.14 384.43 310.94 384.75 C 308.62 385.19 305.40 386.20 305.28 389.05 C 304.17 400.80 303.28 412.59 302.34 424.36 C 298.57 424.24 294.80 423.95 291.04 423.66 C 292.04 410.70 293.06 397.73 294.19 384.77 C 291.20 384.74 288.21 384.73 285.22 384.69 C 284.97 380.93 284.84 377.16 284.69 373.40 C 291.48 373.09 298.27 372.43 305.06 372.36 C 305.49 372.66 306.35 373.25 306.78 373.55 Z" />
<path fill="#10105c" d=" M 269.80 375.60 C 273.61 374.99 277.42 374.45 281.25 374.03 C 281.62 389.71 283.11 405.33 285.57 420.81 C 287.19 430.32 287.14 440.74 281.97 449.23 C 278.27 455.78 270.86 460.62 263.13 459.38 C 253.23 457.76 245.85 450.18 239.23 443.23 C 242.35 440.99 245.42 438.68 248.41 436.27 C 253.46 440.96 258.83 446.41 266.03 447.29 C 270.97 447.80 274.65 443.31 275.52 438.86 C 276.86 431.64 274.74 424.43 273.13 417.44 C 268.48 423.00 261.38 426.94 253.95 425.80 C 246.24 425.40 240.38 418.76 238.73 411.58 C 235.89 399.73 237.40 387.43 237.77 375.40 C 241.99 375.26 246.22 375.16 250.44 375.07 C 250.37 385.04 248.78 395.05 250.11 404.99 C 250.55 408.01 251.69 411.71 255.08 412.49 C 259.30 413.22 264.03 412.11 267.01 408.90 C 269.67 405.94 270.69 401.91 271.09 398.04 C 271.87 390.55 270.81 383.02 269.80 375.60 Z" />
<path fill="#10105c" d=" M 482.50 380.85 C 487.33 379.71 492.64 379.65 497.20 381.82 C 505.58 385.66 511.92 393.24 515.17 401.78 C 517.49 407.85 517.09 415.10 513.46 420.58 C 509.78 426.67 502.91 430.29 495.99 431.19 C 486.91 432.32 477.76 429.37 470.10 424.63 C 463.90 420.64 458.48 413.85 459.43 406.06 C 460.67 393.84 470.96 383.96 482.50 380.85 Z" />
<path fill="#fbfcfc" d=" M 370.74 391.55 C 372.29 382.26 383.98 379.35 391.74 382.27 C 394.90 383.14 396.74 385.95 398.03 388.76 C 388.97 390.00 379.84 390.69 370.74 391.55 Z" />
<path fill="#fbfcfc" d=" M 594.08 413.86 C 597.17 405.37 602.39 397.64 604.00 388.63 L 604.00 486.00 L 257.61 486.00 C 261.78 485.16 265.80 483.54 270.09 483.42 C 279.48 482.84 289.74 483.39 297.91 477.92 C 303.45 474.27 304.78 467.38 307.78 461.92 C 309.17 458.99 312.65 458.56 315.23 457.16 C 321.04 454.45 326.12 449.11 332.99 449.53 C 342.94 450.94 351.00 458.30 361.03 459.43 C 376.26 459.91 389.75 450.43 404.98 450.75 C 413.37 450.52 420.59 456.20 428.99 455.87 C 441.03 455.31 451.90 448.62 464.00 448.46 C 474.08 448.84 482.03 456.53 491.92 457.71 C 502.25 458.25 510.21 449.79 520.22 448.84 C 537.18 449.07 553.97 452.43 570.95 452.25 C 577.03 452.07 583.34 451.55 588.87 448.80 C 592.24 447.20 594.50 443.66 594.52 439.92 C 594.78 431.24 591.45 422.42 594.08 413.86 Z" />
<path fill="#fbfcfc" d=" M 483.60 393.76 C 491.64 391.40 498.84 398.37 501.42 405.38 C 502.60 408.29 502.83 412.00 500.44 414.38 C 496.88 418.29 491.09 418.91 486.11 418.44 C 480.93 417.80 475.29 416.34 471.87 412.10 C 469.82 409.63 469.84 405.96 471.25 403.19 C 473.69 398.40 478.49 395.13 483.60 393.76 Z" />
</svg>
