<?xml version="1.0" encoding="utf-8"?>
<!-- Generator: Adobe Illustrator 15.0.0, SVG Export Plug-In . SVG Version: 6.00 Build 0)  -->
<!DOCTYPE svg PUBLIC "-//W3C//DTD SVG 1.1//EN" "http://www.w3.org/Graphics/SVG/1.1/DTD/svg11.dtd">
<svg version="1.1" id="Слой_1" xmlns="http://www.w3.org/2000/svg" xmlns:xlink="http://www.w3.org/1999/xlink" x="0px" y="0px"
	 width="841.89px" height="595.28px" viewBox="0 0 841.89 595.28" enable-background="new 0 0 841.89 595.28" xml:space="preserve">
<g>
	<path fill-rule="evenodd" clip-rule="evenodd" fill="#FFFFFF" d="M517.639,17c-32.606,5.522-72.271,26.082-66.231,66.234
		c1.231,8.206,8.118,10.704,7.094,18.923c-5.665,3.323-14.968-2.597-21.286,1.183c-0.814,15.401,11.188,17.983,22.47,21.29
		c2.219,4.877,0.058,14.137,4.73,16.56c15.512,3.915,20.655-11.272,30.753-16.56c13.942,5.772,20.502,18.923,37.847,21.29
		c7.743,12.213,4.418,32.378,0,47.31c-3.455,11.681-8.783,32.088-17.739,37.848c-4.919,3.163-30.623,10.918-36.668,10.646
		c-6.131-0.277-11.083-7.688-18.923-9.462c-4.683-1.062-9.538,1.239-13.009,0c-11.525-4.115-14.322-22.107-26.021-22.473
		c-9.632,9.725-9.394,22.366-23.654,24.838c-8.266,1.433-14.922-3.571-22.473,0c-9.866,4.661-8.143,15.233-16.56,22.471
		c-6.254-0.809-13.706-0.828-20.105,3.55c-17.629-2.855-20.367-17.757-31.937-30.751c-5.688-6.393-14.051-13.453-21.289-20.107
		c-6.884-6.329-16.923-17.357-23.654-17.741c-15.116-0.867-32.086,23.422-44.945,33.118c-20.444,15.41-46.336,8.96-60.319,28.384
		c-9.361-0.893-13.15,5.159-22.473,7.097c-3.51,11.47-6.24,23.724-10.646,34.299c-16.645,1.1-20.451,15.032-27.204,26.019
		c-26.682-4.206-28.466,16.48-29.569,37.852c0-113.94,0-227.877,0-341.816C216.43,17,367.04,17,517.639,17z"/>
	<path fill-rule="evenodd" clip-rule="evenodd" d="M517.639,17c4.729,0,9.462,0,14.192,0c31.71,5.492,54.459,27.955,65.052,53.223
		c19.516,46.547-35.689,98.156-9.461,141.931c11.372-0.935,24.708,3.507,33.116-4.73c6.588,0.511,5.51,8.685,10.645,10.643
		c18.636-7.048,19.78-20.908,36.668-24.837c28.505-6.632,41.104,25.362,54.406,42.58c8.635,11.174,18.684,21.377,17.738,31.934
		c-1.346,15.144-20.519,20.076-36.661,23.656c-22.076,15.104-17.248,39.418-14.198,66.234c0.688,6.006-1.439,13.008,0,18.923
		c5.093,20.892,37.997,20.479,43.768,37.846c-10.103,36.461,34.92,35.234,47.308,56.776c0,2.756,0,5.519,0,8.276
		c-2.537,11.854-11.199,17.85-13.009,30.753c-2.845,20.237,9.322,37.342-15.376,41.394c-22.652,3.72-49.436-7.195-73.331-3.547
		c-9.158,1.401-18.879,10.43-28.39,10.646c-10.669,0.239-21.348-10.975-34.3-11.831c-13.86-0.914-29.468,9.853-43.761,9.467
		c-6.193-0.168-12.614-4.774-21.286-5.914c-21.584-2.836-43.607,12.108-61.505,9.461c-12.407-1.838-22.317-11.694-33.116-10.645
		c-4.101,0.398-21.041,8.181-24.837,11.829c-5.121,4.918-4.431,14.385-10.646,20.103c-8.513,7.84-20.625,5.443-34.299,7.099
		c-15.396,1.862-27.105,5.477-39.031-3.548c-15.44-11.689-30.855-44.555-31.934-69.783c-0.508-11.871,6.104-25.159-4.731-33.115
		c-15.052,4.629-30.286,10.415-42.58,17.739c-5.918,3.528-13.998,12.638-21.289,13.009c-19.425,0.997-40.542-34.186-55.592-41.393
		c-32.213-15.431-62.357,7.632-101.717,3.547c-18.909-18.938-18.536-57.16-23.654-89.892c0-8.672,0-17.345,0-26.018
		c1.103-21.371,2.887-42.058,29.569-37.852c6.752-10.986,10.559-24.919,27.204-26.019c4.406-10.575,7.135-22.829,10.646-34.299
		c9.322-1.938,13.112-7.99,22.473-7.097c13.983-19.424,39.875-12.974,60.319-28.384c12.859-9.696,29.829-33.985,44.945-33.118
		c6.73,0.383,16.77,11.412,23.654,17.741c7.238,6.654,15.601,13.714,21.289,20.107c11.57,12.994,14.308,27.896,31.937,30.751
		c6.399-4.377,13.851-4.359,20.105-3.55c8.417-7.238,6.694-17.81,16.56-22.471c7.551-3.571,14.207,1.433,22.473,0
		c14.26-2.472,14.021-15.113,23.654-24.838c11.699,0.365,14.496,18.357,26.021,22.473c3.471,1.239,8.326-1.062,13.009,0
		c7.84,1.773,12.792,9.185,18.923,9.462c6.045,0.272,31.749-7.483,36.668-10.646c8.956-5.76,14.284-26.167,17.739-37.848
		c4.418-14.932,7.743-35.097,0-47.31c-17.345-2.367-23.904-15.518-37.847-21.29c-10.098,5.288-15.241,20.475-30.753,16.56
		c-4.673-2.423-2.512-11.683-4.73-16.56c-11.281-3.307-23.284-5.889-22.47-21.29c6.318-3.78,15.621,2.14,21.286-1.183
		c1.024-8.22-5.862-10.718-7.094-18.923C445.367,43.082,485.032,22.522,517.639,17z M568.498,183.767
		c-2.815-37.808,24.078-67.752,17.74-106.445c-3.326-20.312-26.72-43.48-47.309-48.495c-36.504-8.892-68.249,15.36-69.783,48.495
		c3.018,7.183,8.86,5.248,16.561,9.461c6.616,3.619,9.864,9.366,14.191,10.643c5.059,1.498,10.873-1.119,16.561,0
		c10.222,2.015,19.756,13.113,33.116,9.464c-13.384,8.691-35.769,8.387-50.86,15.375c-0.004,4.738,5.544,3.922,7.099,7.096
		c10.684-8.627,38.737,4.107,47.309-8.278c-1.728-13.99,12.084-26.527,22.476-14.192c4.533,18.371-15.975,24.92-20.107,34.3
		c-3.908,8.848,0.533,22.063-1.186,31.935c-1.419,8.146-4.937,18.182-7.098,26.019c-10.131,36.787-22.648,45.056-60.316,55.59
		c10.583-3.91,17.484,2.984,20.102,10.644c-11.236,27.764-0.64,58.364,20.108,69.78c17.845,9.823,38.217,2.479,59.138,7.1
		c-2.113-21.153-20.219-32.606-15.372-56.772c11.627-0.326,14.337-0.507,24.833-4.732c-0.365-5.546-7.041-4.785-8.277-9.46
		c2.521-4.972,8.966-6.016,10.646-11.828C584.635,238.181,570.789,214.559,568.498,183.767z M632.367,274.839
		c3.565-3.067,12.258-6.215,9.461-11.827c-4.783,4.834-18.817,4.882-21.29-2.365c10.582-2.036,13.836-11.4,24.837-13.012
		c5.078-7.147,3.701-20.743,9.462-27.203c2.367,0,4.73,0,7.099,0c2.998,3.189,0.933,4.591,2.368,8.28
		c6.16-0.934,8.571-5.616,15.371-5.915c2.518,14.736-8.254,16.189-15.371,21.292c1.53,5.402-2.941,12.223,1.179,13.008
		c12.59-5.941,17.581-19.482,23.653-31.932c15.078,19.58-15.635,27.52-20.102,42.577c17.018,3.936,30.08-11.062,33.116-21.289
		c3.396-0.246,6.006,0.299,7.093,2.365c2.233,8.144-5.337,6.488-5.909,11.828c4.273,0.828,10.834,0.271,11.824,7.096
		c-27.716,2.365-46.918,26.342-67.416,24.838c4.784,3.493,12.307,4.255,14.193,10.646c0.308,6.617-5.914,6.7-5.914,13.008
		c1.322,5.382,4.446,8.957,5.914,14.193c-2.565,3.743-5.636,6.978-13.009,5.914c-10.111-9.21-16.719-21.922-28.389-29.568
		c3.979,18.756,14.048,35.021,17.743,56.775c-5.626,1.627-10.828-0.938-16.56-2.369c-2.961-8.869-11.089-12.565-10.646-24.838
		c-5.823-8.364-9.808-18.575-15.376-27.201c0.005-6.939-6.185-19.518-9.461-15.375c1.385,16.357,14.5,31.228,21.29,46.123
		c-9.216,12.074-32.787,9.794-49.676,14.197c5.9,28.719-10.179,36.19-21.291,48.492c-7.681,8.504-21.632,23.866-35.479,21.287
		c-7.705-1.436-10.771-12.947-20.106-10.641c-3.119-2.619,0.904-7.878-1.186-9.463c-5.12-0.398-12.388,1.348-14.191-2.366
		c-0.121-4.853-0.231-9.693,1.184-13.01c8.133-2.213,15.867-7.237,23.654-7.098c4.784,0.086,7.873,4.201,13.008,4.73
		c8.832,0.91,18.442-5.106,28.386-1.185c3.85-8.633,8.465-22.773,3.552-33.114c-26.989-9.68-42.698-30.634-49.676-60.32
		c-13.847,0.089-26.398,22.213-37.852,9.462c4.451-4.437,12.677-8.944,20.106-13.011c6.993-3.824,18.533-6.8,15.377-14.193
		c-9.222,12.116-48.353,20.359-50.855,0c11.599-0.717,35.06,9.967,40.21-5.915c-21.984-1.312-47.842,1.018-65.05-9.462
		c4.805-6.626,20.532-2.333,29.571-4.73c4.504-6.138,14.076-7.209,24.838-7.096c-2.502-7.197-8.394-2.481-15.377-2.365
		c-9.254-6.124-12.451-18.304-24.837-21.292c-6.057,10.925-6.279,21.235-17.742,23.657c-7.005,1.477-14.647-4.315-22.473-2.365
		c-12.194,3.037-8.321,21.195-21.291,23.654c-3.641,0.881-2.271-3.247-5.913-2.365c-5.147,3.567-9.341,6.369-14.192,7.095
		c-25.442,3.816-29.167-20.566-44.945-35.481c-11.954-11.301-25.656-26.656-33.119-27.203c-14.295-1.049-25.196,14.833-34.3,22.473
		c-17.784,12.57-47.666,13.045-61.502,29.568c-8.877-3.977-8.949,6.396-18.923,4.732c-1.761,12.433-6.56,21.826-8.28,34.299
		c-10.849,1.373-12.966,11.475-23.655,13.011c-2.877,11.709-6.816,22.359-24.838,18.924c-4.442,3.835-7.132,9.428-10.645,14.191
		c-2.048,42.752-0.72,87.87,17.741,113.545c26.602,5.664,71.841-16.662,99.352-2.368c17.742,9.221,33.162,41.326,54.407,39.035
		c10.234-1.107,20.678-13.46,30.75-17.744c12.393-5.271,21.903-9.567,35.484-13.009c11.716,9.43,6.853,26.085,8.278,41.395
		c2.909,31.225,20.294,71.958,53.225,68.6c20.182-2.057,45.171-12.712,48.492-33.116c13.112-1.318,18.998-8.688,31.935-8.278
		c12.344,0.39,22.854,11.143,34.299,11.824c15.835,0.954,33.713-12.237,54.407-9.46c6.747,0.909,12.509,5.697,18.924,5.914
		c14.572,0.5,27.182-10.198,41.397-9.462c9.784,0.51,19.31,9.336,29.569,10.646c11.945,1.521,16.859-4.74,24.838-5.914
		c28.774-4.236,58.579,13.302,85.154-3.548c3.697-8.276-2.131-17.617-1.179-28.384c1.434-16.23,15.169-26.157,13.008-37.852
		c-3.632-19.68-60.971-22.634-44.944-54.408c-5.501-18.071-38.996-10.74-43.762-31.931c-1.458-6.487,2.709-14.054,2.368-21.292
		c-0.322-6.747-4.022-13.648-4.73-21.291c-2.127-22.782,2.521-44.033,16.555-55.586c13.169-0.24,19.28-7.534,31.937-8.28
		c9.938-15.145-9.091-28.868-18.923-43.761c-5.226-7.912-10.977-22.559-18.928-24.838c-29.059-8.337-32.697,22.85-53.223,29.568
		c-5.569-1.525-4.259-9.933-10.646-10.645c-5.207,4.001-17.146,5.168-21.286,3.549C605.161,246.849,617.385,262.223,632.367,274.839
		z"/>
	<path fill-rule="evenodd" clip-rule="evenodd" fill="#FFFFFF" d="M531.831,17c82.796,0,165.587,0,248.38,0
		c0,151.393,0,302.783,0,454.179c-12.388-21.542-57.41-20.315-47.308-56.776c-5.771-17.367-38.675-16.954-43.768-37.846
		c-1.439-5.915,0.688-12.917,0-18.923c-3.05-26.816-7.878-51.13,14.198-66.234c16.143-3.58,35.315-8.513,36.661-23.656
		c0.945-10.557-9.104-20.76-17.738-31.934c-13.302-17.217-25.901-49.211-54.406-42.58c-16.888,3.93-18.032,17.789-36.668,24.837
		c-5.135-1.958-4.057-10.132-10.645-10.643c-8.408,8.237-21.744,3.795-33.116,4.73c-26.229-43.775,28.977-95.384,9.461-141.931
		C586.29,44.955,563.541,22.492,531.831,17z"/>
	<path fill-rule="evenodd" clip-rule="evenodd" fill="#FFFFFF" d="M598.067,259.465c-1.68,5.812-8.124,6.856-10.646,11.828
		c1.236,4.676,7.912,3.915,8.277,9.46c-10.496,4.226-13.206,4.406-24.833,4.732c-4.847,24.166,13.259,35.619,15.372,56.772
		c-20.921-4.621-41.293,2.724-59.138-7.1c-20.748-11.416-31.345-42.017-20.108-69.78c-2.617-7.66-9.519-14.554-20.102-10.644
		c37.668-10.535,50.186-18.804,60.316-55.59c2.161-7.837,5.679-17.873,7.098-26.019c1.719-9.872-2.723-23.087,1.186-31.935
		c4.133-9.379,24.641-15.929,20.107-34.3c-10.392-12.335-24.203,0.202-22.476,14.192c-8.571,12.386-36.625-0.349-47.309,8.278
		c-1.555-3.173-7.103-2.357-7.099-7.096c15.092-6.988,37.477-6.683,50.86-15.375c-13.36,3.648-22.895-7.45-33.116-9.464
		c-5.688-1.119-11.502,1.498-16.561,0c-4.327-1.277-7.575-7.023-14.191-10.643c-7.7-4.213-13.543-2.279-16.561-9.461
		c1.534-33.135,33.279-57.387,69.783-48.495c20.589,5.015,43.982,28.183,47.309,48.495c6.338,38.693-20.556,68.638-17.74,106.445
		C570.789,214.559,584.635,238.181,598.067,259.465z M504.63,96.245c4.528-4.936,16.068-2.854,21.291-7.097
		C525.642,62.421,479.951,80.871,504.63,96.245z"/>
	<path fill-rule="evenodd" clip-rule="evenodd" d="M525.921,89.148c-5.223,4.242-16.763,2.161-21.291,7.097
		C479.951,80.871,525.642,62.421,525.921,89.148z"/>
	<path fill-rule="evenodd" clip-rule="evenodd" d="M434.847,289.034c0.755,16.916-29.691,2.638-29.569,18.924
		c29.035-26.476,47.255,46.168,3.549,34.3c-15.021-4.082-18.558-46.235,2.365-52.042
		C418.673,288.139,425.595,290.995,434.847,289.034z M408.827,317.419c-1.147,10.217,0.57,17.566,11.827,15.377
		C431.145,323.915,417.554,304.016,408.827,317.419z"/>
	<path fill-rule="evenodd" clip-rule="evenodd" d="M156.9,303.227c11.115,0.712,25.126-1.473,34.299,1.184c0,2.758,0,5.52,0,8.278
		c-3.941,0-7.885,0-11.827,0c0,9.856,0,19.711,0,29.569c-4.016-0.324-9.589,0.913-11.827-1.186c0-9.065,0-18.133,0-27.2
		c-1.642-2.7-8.234-0.442-11.827-1.184C157.068,308.304,155.832,305.831,156.9,303.227z"/>
	<path fill-rule="evenodd" clip-rule="evenodd" d="M192.384,303.227c3.547,0,7.097,0,10.643,0c4.661,6.376,5.255,16.82,9.461,23.653
		c3.239-7.406,5.075-16.213,8.281-23.653c3.549,0,7.095,0,10.645,0c-11.016,18.553-4.868,54.272-35.483,53.223
		c0.259-3.807-2.092-5.004-1.182-9.462c5.285,3.008,9.277-0.461,11.827-3.546C202.924,328.956,196.304,317.443,192.384,303.227z"/>
	<path fill-rule="evenodd" clip-rule="evenodd" d="M245.606,306.773c34.069-22.323,35.116,53.296,1.185,31.938
		c0,5.519,0,11.034,0,16.555c-2.157,1.809-9.674,1.809-11.83,0c0.754-16.989-1.527-37.01,1.184-52.039
		C239.651,304.055,247.292,300.753,245.606,306.773z M246.791,316.234c-0.889,9.959,0.132,18.005,9.461,17.744
		C268.267,327.641,256.512,301.255,246.791,316.234z"/>
	<path fill-rule="evenodd" clip-rule="evenodd" d="M278.725,303.227c3.547,0,7.096,0,10.644,0c0,5.125,0,10.25,0,15.376
		c6.48-4.312,7.019-20.383,20.106-14.192c0,1.574,0,3.152,0,4.73c-5.161,2.33-7.724,7.254-10.645,11.824
		c3.308,6.55,9.033,10.681,10.645,18.924c1.283-6.329,2.763-6.539,8.281-7.093c0.688-9.564-1.442-21.942,1.181-29.569
		c10.646,0,21.292,0,31.935,0c2.678,10.728,0.455,26.354,1.184,39.031c-3.55,0-7.097,0-10.646,0c0.457-10.512-0.76-20.888,0-28.386
		c-2.238-2.099-7.811-0.862-11.827-1.184c-2.746,6.174,1.174,21.252-3.549,28.384c-7.118,2.344-18.231,0.693-27.203,1.186
		c-2.521-5.362-3.285-12.484-8.278-15.378c-2.722,2.802-0.424,10.617-1.184,15.378c-3.547,0-7.097,0-10.644,0
		C278.725,329.248,278.725,316.234,278.725,303.227z"/>
	<path fill-rule="evenodd" clip-rule="evenodd" d="M366.247,303.227c1.897,8.355,5.693,14.809,7.097,23.653
		c5.756-5.284,6.172-15.904,9.461-23.653c3.55,0,7.097,0,10.646,0c-10.689,18.88-4.517,54.618-35.483,53.223
		c-0.679-2.08,1.429-6.949-1.182-7.094c1.664-3.345,10.435,0.274,11.827-5.914c-3.665-13.683-8.39-26.307-14.192-37.852
		C355.029,301.471,362.146,303.856,366.247,303.227z"/>
	<path fill-rule="evenodd" clip-rule="evenodd" fill="#FFFFFF" d="M256.252,333.979c-9.329,0.261-10.35-7.785-9.461-17.744
		C256.512,301.255,268.267,327.641,256.252,333.979z"/>
	<path fill-rule="evenodd" clip-rule="evenodd" fill="#FFFFFF" d="M420.654,332.796c-11.257,2.189-12.975-5.16-11.827-15.377
		C417.554,304.016,431.145,323.915,420.654,332.796z"/>
	<path fill-rule="evenodd" clip-rule="evenodd" d="M676.129,420.319c-12.898,1.669-24.169,4.329-34.301-3.548
		c-3.894,2.834,4.304,3.487,2.368,8.277c-8.822,6.801-18.61-2.585-23.658-7.094c-5.811,2.806-10.126,9.537-18.924,5.91
		c-3.778-6.983-7.561-22.937-1.185-29.568c-8.667-12.226-11.223-30.561-20.102-42.577c7.267-0.459,15.871-5.29,20.102,1.182
		c2.233,19.06,13.938,28.641,21.292,42.577c10.452,1.475,20.983,5.618,30.753,9.463C660.9,408.262,674.761,409.24,676.129,420.319z"
		/>
	<path fill-rule="evenodd" clip-rule="evenodd" d="M406.461,361.18c4.418-2.233,11.921-3.874,14.193,1.185
		c4.814,0.082,5.092-4.37,4.73-9.463c5.746,1.185,11.306-2.021,14.192,0C447.826,379.53,403.692,390.591,406.461,361.18z"/>
	<path fill-rule="evenodd" clip-rule="evenodd" d="M169.911,373.009c-14.423-0.163-27.232-1.943-42.579-1.184
		c0,20.502,0,41.005,0,61.507c0.146,2.607,5.017,0.5,7.095,1.178c0,4.337,0,8.677,0,13.014c-8.277,0-16.557,0-24.837,0
		c0.837-4.39-2.021-5.077-1.182-9.461c-1.151-4.702,6.61-0.492,5.913-4.73c-2.211-24.209,0.512-53.344-4.731-74.516
		c18.928-0.788,40.999,1.574,57.956-1.183C172.089,359,169.011,367.995,169.911,373.009z"/>
	<path fill-rule="evenodd" clip-rule="evenodd" d="M291.733,368.279c-0.133,11.96,2.84,20.813,2.365,33.116
		c6.396-9.376,10.952-20.591,21.292-26.022c6.901,1.377,8.247,8.312,14.192,10.646c-17.054,6.617-31.404,29.953-10.646,42.577
		c5.922,0.799,9.156-1.092,14.195-1.181c2.327,3.192,0.703,10.335,1.181,15.378c-7.096,0-14.192,0-21.288,0
		c-4.837-8.177-11.899-14.125-17.742-21.292c-1.641,5.218,1.076,16.249,0,24.838c-4.336,0-8.675,0-13.011,0
		c-1.158-19.736-2.305-39.482-2.365-60.32c-0.491-4.033-6.485,1.79-5.912-1.185c-1.487-3.075-2.039-11.289-1.185-13.009
		C280.058,371.586,285.003,369.034,291.733,368.279z"/>
	<path fill-rule="evenodd" clip-rule="evenodd" d="M349.69,378.924c2.759,13.462-9.043,46.981,7.095,49.672
		c19.689,3.287,15.55-29.823,16.559-50.855c4.336,0,8.675,0,13.011,0c0,16.167,0,32.328,0,48.493
		c2.731,3.787,5.272-2.518,9.461-1.185c1.896,4.808,0.674,12.734,2.365,17.744c-5.935,0.766-14.956-1.554-18.923,1.18
		c-2.587-0.173-2.542-2.98-2.365-5.91c-38.374,23.249-51.639-25.642-40.214-60.322C342.075,377.071,344.044,379.834,349.69,378.924z
		"/>
	<path fill-rule="evenodd" clip-rule="evenodd" d="M398.182,377.74c5.602-0.477,8.14,2.109,14.192,1.184
		c0.758,16.734-9.767,47.828,7.097,49.672c19.038,2.084,15.52-28.367,15.376-50.855c4.73,0,9.462,0,14.192,0
		c-2.387,9.954-0.654,32.875-1.184,48.493c2.752,3.436,6.377-2.225,10.646-1.185c-0.891,7.199,1.892,10.727,1.184,17.744
		c-7.239-1.833-22.918,4.778-21.291-5.915C401.591,462.741,387.909,414.365,398.182,377.74z"/>
	<path fill-rule="evenodd" clip-rule="evenodd" d="M231.414,458.164c8.631,4.221,12.265,13.298,22.473,11.83
		c13.884-1.998,10.566-20.435,7.096-34.3c-22.987,21.387-51.307,4.63-43.761-31.933c4.492-21.771,48.251-29.642,54.404-3.551
		c0.821,3.479-0.31,8.388,0,13.014c1.8,26.617,14.794,77.223-24.835,70.961C233.053,482.017,209.289,462.313,231.414,458.164z
		 M237.326,428.596c16.105,4.778,24.718-12.513,20.107-28.385C240.344,383.818,223.427,414.181,237.326,428.596z"/>
	<path fill-rule="evenodd" clip-rule="evenodd" fill="#FFFFFF" d="M65.828,384.834c5.119,32.731,4.746,70.953,23.654,89.892
		c39.36,4.085,69.504-18.978,101.717-3.547c15.05,7.207,36.167,42.39,55.592,41.393c7.291-0.371,15.371-9.48,21.289-13.009
		c12.293-7.324,27.527-13.11,42.58-17.739c10.835,7.956,4.223,21.244,4.731,33.115c1.078,25.229,16.493,58.094,31.934,69.783
		c11.926,9.024,23.635,5.41,39.031,3.548c13.675-1.655,25.786,0.741,34.299-7.099c6.216-5.718,5.525-15.185,10.646-20.103
		c3.796-3.648,20.736-11.431,24.837-11.829c10.799-1.05,20.709,8.807,33.116,10.645c17.897,2.647,39.921-12.297,61.505-9.461
		c8.672,1.14,15.093,5.746,21.286,5.914c14.293,0.386,29.9-10.381,43.761-9.467c12.952,0.856,23.631,12.07,34.3,11.831
		c9.511-0.217,19.231-9.245,28.39-10.646c23.896-3.648,50.679,7.267,73.331,3.547c24.698-4.052,12.531-21.156,15.376-41.394
		c1.81-12.903,10.472-18.899,13.009-30.753c0,37.848,0,75.698,0,113.545c-238.129,0-476.251,0-714.383,0
		C65.828,523.611,65.828,454.224,65.828,384.834z"/>
	<path fill-rule="evenodd" clip-rule="evenodd" d="M184.104,389.564c5.126,0,10.251,0,15.377,0
		c-0.075,12.938-1.979,24.045-1.185,37.851c3.342,1.552,11.823-0.354,15.376-2.366c4.011,3.084,3.583,10.612,4.73,16.56
		c-9.866,0.779-18.653,2.638-28.384,3.548c0-1.97,0-3.942,0-5.914c-16.782,12.686-53.071,9.018-46.129-22.471
		c6.519-13.245,18.777-26.893,40.214-21.293C184.104,393.511,184.104,391.539,184.104,389.564z M158.084,423.865
		c2.243,12.694,24.521,8.455,28.385-2.364C182.888,402.823,155.264,407.91,158.084,423.865z"/>
	<path fill-rule="evenodd" clip-rule="evenodd" fill="#FFFFFF" d="M257.434,400.211c4.611,15.872-4.002,33.163-20.107,28.385
		C223.427,414.181,240.344,383.818,257.434,400.211z"/>
	<path fill-rule="evenodd" clip-rule="evenodd" fill="#FFFFFF" d="M186.469,421.501c-3.865,10.819-26.143,15.059-28.385,2.364
		C155.264,407.91,182.888,402.823,186.469,421.501z"/>
	<path fill-rule="evenodd" clip-rule="evenodd" d="M524.737,427.415c6.102-2.497,12.354,0.525,13.008,7.095
		C540.113,458.318,503.431,436.133,524.737,427.415z"/>
	<path fill-rule="evenodd" clip-rule="evenodd" d="M501.083,428.596c15.284-6.703,16.612,17.566,3.547,17.743
		C493.686,446.484,491.583,432.763,501.083,428.596z"/>
	<path fill-rule="evenodd" clip-rule="evenodd" d="M613.443,449.887c-0.332,4.005-1.882,6.792-1.184,11.829
		c-2.252,2.214-2.97,0.131-5.914,0c-2.351,19.333-1.035,42.327-3.548,61.501c-4.337,0-8.672,0-13.009,0
		c-0.649-9.718,2.089-16.046,1.179-26.018c-4.519-2.116-16.709-1.761-21.286,0c1.103,7.96,1.482,16.652,1.185,26.018
		c-3.601,0.741-10.188-1.512-11.829,1.184c-3.658-17.633-2.71-39.867-3.547-60.32c-0.285-4.938-4.399,1.342-5.915-2.364
		c-2.84-1.496,0.65-9.327-2.368-10.646c5.005-3.272,12.248-4.312,20.107-4.731c0.222,11.999,2.791,21.657,2.367,34.301
		c4.61,2.488,13.601,0.591,20.107,1.184c2.19-10.823,2.994-23.029,3.547-35.484C598.192,445.011,607.389,448.568,613.443,449.887z"
		/>
	<path fill-rule="evenodd" clip-rule="evenodd" d="M691.504,446.339c2.146,9.685,1.574,22.082,3.548,31.933
		c5.981-9.784,10.925-20.612,21.29-26.016c4.347,4.325,9.905,7.439,13.01,13.007c-19.52,3.331-28.881,30.955-9.462,41.399
		c5.039-0.092,8.272-1.979,14.191-1.186c-0.822,5.949,2.007,8.244,1.185,14.193c-6.796,0.304-15.079-0.885-20.107,1.185
		c-6.257-7.548-13.831-13.77-18.924-22.476c-2.275,5.856-1.529,18.861,0,24.838c-5.645-0.914-7.612,1.854-13.008,1.184
		c-2.633-19.053-2.189-41.177-3.552-61.501c-0.173-2.642-2.979,1.53-5.91,0c0.665-5.399-2.099-7.368-1.184-13.013
		C679.112,448.929,684.049,446.374,691.504,446.339z"/>
	<path fill-rule="evenodd" clip-rule="evenodd" d="M550.759,487.733c-15.877,2.267-31.604,4.673-47.313,7.1
		c1.348,25.448,30.797,8.268,42.583,3.546c4.73,1.974,5.992,7.41,8.276,11.829c-24.943,19.202-67.097,18.582-68.598-17.739
		C483.786,446.013,552.256,439.654,550.759,487.733z M504.63,479.455c11.607-0.221,22.975-0.678,31.932-3.546
		C531.658,464.021,506.228,465.576,504.63,479.455z"/>
	<path fill-rule="evenodd" clip-rule="evenodd" d="M483.339,519.67c-4.731,0-9.462,0-14.192,0
		c-0.217-15.939,3.243-49.622-10.646-46.13c-11.031,2.778-1.556,30.687-4.731,44.946c-6.42-0.9-9.576,1.459-15.376,1.184
		c-0.438-15.501,3.407-32.756,0-47.309c-21.582-1.088-8.976,32.022-15.374,46.125c-4.336,0-8.675,0-13.011,0
		c0.97-15.194,2.724-29.604,3.55-44.946c-1.259-2.68-7.436-0.446-10.646-1.179c0-4.73,0-9.462,0-14.197
		c21.724,2.646,35.111-7.146,48.495,3.552C483.016,447.293,485.009,489.39,483.339,519.67z"/>
	<path fill-rule="evenodd" clip-rule="evenodd" d="M395.816,459.348c4.24,27.904,17.45,80.81-2.366,96.989
		c-13.376,10.921-34.305-1.65-43.761-14.197c1.515-4.394,6.29-5.534,9.462-8.277c8.872,4.347,13.919,14.635,24.837,11.83
		c11.983-3.086,7.915-20.258,5.913-33.121c-5.98,0.288-9.231,7.296-16.558,8.283c-28.794,3.863-29.706-31.706-26.02-60.322
		c4.731,0,9.461,0,14.193,0c2.476,15.41-5.617,41.038,5.915,44.944c18.76,6.358,22.167-24.053,17.739-43.761
		C387.642,459.849,393.025,460.893,395.816,459.348z"/>
	<path fill-rule="evenodd" clip-rule="evenodd" d="M638.281,467.631c18.293-2.951,39.411,13.947,39.03,34.3
		c-0.707,37.52-66.197,29.381-68.6-1.184C607.23,481.919,622.51,470.167,638.281,467.631z M621.722,499.563
		c1.414,16.431,35.136,16.724,37.846,3.547c2.815-13.653-11.012-21.117-20.103-20.107
		C627.131,484.374,621.071,491.973,621.722,499.563z"/>
	<path fill-rule="evenodd" clip-rule="evenodd" fill="#FFFFFF" d="M536.562,475.909c-8.957,2.868-20.324,3.325-31.932,3.546
		C506.228,465.576,531.658,464.021,536.562,475.909z"/>
	<path fill-rule="evenodd" clip-rule="evenodd" fill="#FFFFFF" d="M639.465,483.002c9.091-1.01,22.918,6.454,20.103,20.107
		c-2.71,13.177-36.432,12.884-37.846-3.547C621.071,491.973,627.131,484.374,639.465,483.002z"/>
	<path fill-rule="evenodd" clip-rule="evenodd" fill="#FFFFFF" d="M594.52,229.896c4.14,1.62,16.079,0.452,21.286-3.549
		c6.388,0.712,5.077,9.12,10.646,10.645c20.525-6.718,24.164-37.906,53.223-29.568c7.951,2.279,13.702,16.926,18.928,24.838
		c9.832,14.893,28.861,28.616,18.923,43.761c-12.656,0.746-18.768,8.04-31.937,8.28c-14.033,11.553-18.682,32.804-16.555,55.586
		c0.708,7.643,4.408,14.544,4.73,21.291c0.341,7.238-3.826,14.805-2.368,21.292c4.766,21.19,38.261,13.859,43.762,31.931
		c-16.026,31.774,41.313,34.729,44.944,54.408c2.161,11.694-11.574,21.621-13.008,37.852c-0.952,10.767,4.876,20.107,1.179,28.384
		c-26.575,16.85-56.38-0.688-85.154,3.548c-7.979,1.174-12.893,7.436-24.838,5.914c-10.26-1.31-19.785-10.136-29.569-10.646
		c-14.216-0.736-26.825,9.962-41.397,9.462c-6.415-0.217-12.177-5.005-18.924-5.914c-20.694-2.777-38.572,10.414-54.407,9.46
		c-11.444-0.682-21.955-11.435-34.299-11.824c-12.937-0.41-18.822,6.96-31.935,8.278c-3.32,20.404-28.31,31.06-48.492,33.116
		c-32.931,3.358-50.316-37.375-53.225-68.6c-1.425-15.31,3.438-31.965-8.278-41.395c-13.581,3.441-23.091,7.738-35.484,13.009
		c-10.072,4.284-20.516,16.637-30.75,17.744c-21.245,2.291-36.665-29.814-54.407-39.035c-27.511-14.294-72.75,8.032-99.352,2.368
		c-18.461-25.675-19.79-70.793-17.741-113.545c3.513-4.764,6.203-10.356,10.645-14.191c18.021,3.436,21.96-7.215,24.838-18.924
		c10.689-1.536,12.806-11.638,23.655-13.011c1.72-12.474,6.519-21.867,8.28-34.299c9.974,1.665,10.046-8.709,18.923-4.732
		c13.837-16.523,43.718-16.998,61.502-29.568c9.104-7.64,20.005-23.522,34.3-22.473c7.463,0.547,21.165,15.902,33.119,27.203
		c15.778,14.915,19.503,39.297,44.945,35.481c4.851-0.726,9.045-3.528,14.192-7.095c3.641-0.881,2.272,3.246,5.913,2.365
		c12.97-2.459,9.096-20.617,21.291-23.654c7.826-1.95,15.468,3.842,22.473,2.365c11.463-2.421,11.685-12.731,17.742-23.657
		c12.386,2.988,15.583,15.167,24.837,21.292c6.983-0.116,12.875-4.832,15.377,2.365c-10.762-0.114-20.334,0.958-24.838,7.096
		c-9.039,2.397-24.766-1.896-29.571,4.73c17.208,10.48,43.065,8.151,65.05,9.462c-5.15,15.882-28.611,5.198-40.21,5.915
		c2.503,20.359,41.634,12.116,50.855,0c3.156,7.393-8.384,10.369-15.377,14.193c-7.43,4.066-15.655,8.574-20.106,13.011
		c11.453,12.751,24.005-9.373,37.852-9.462c6.978,29.687,22.687,50.641,49.676,60.32c4.913,10.341,0.298,24.481-3.552,33.114
		c-9.943-3.922-19.554,2.095-28.386,1.185c-5.135-0.529-8.224-4.645-13.008-4.73c-7.787-0.14-15.521,4.885-23.654,7.098
		c-1.415,3.316-1.305,8.157-1.184,13.01c1.804,3.714,9.071,1.968,14.191,2.366c2.09,1.585-1.934,6.844,1.186,9.463
		c9.336-2.307,12.401,9.205,20.106,10.641c13.847,2.579,27.798-12.783,35.479-21.287c11.112-12.302,27.191-19.773,21.291-48.492
		c16.889-4.403,40.46-2.123,49.676-14.197c-6.79-14.896-19.905-29.766-21.29-46.123c3.276-4.143,9.466,8.436,9.461,15.375
		c5.568,8.626,9.553,18.837,15.376,27.201c-0.442,12.272,7.686,15.969,10.646,24.838c5.731,1.431,10.934,3.996,16.56,2.369
		c-3.695-21.755-13.764-38.02-17.743-56.775c11.67,7.646,18.277,20.358,28.389,29.568c7.373,1.063,10.443-2.171,13.009-5.914
		c-1.468-5.236-4.592-8.812-5.914-14.193c0-6.308,6.222-6.391,5.914-13.008c-1.887-6.391-9.409-7.152-14.193-10.646
		c20.498,1.504,39.7-22.473,67.416-24.838c-0.99-6.825-7.551-6.268-11.824-7.096c0.572-5.34,8.143-3.684,5.909-11.828
		c-1.087-2.066-3.696-2.611-7.093-2.365c-3.036,10.227-16.099,25.225-33.116,21.289c4.467-15.057,35.18-22.997,20.102-42.577
		c-6.072,12.449-11.063,25.99-23.653,31.932c-4.12-0.785,0.352-7.606-1.179-13.008c7.117-5.102,17.889-6.556,15.371-21.292
		c-6.8,0.299-9.211,4.98-15.371,5.915c-1.436-3.689,0.63-5.09-2.368-8.28c-2.368,0-4.731,0-7.099,0
		c-5.761,6.46-4.384,20.056-9.462,27.203c-11.001,1.611-14.255,10.976-24.837,13.012c2.473,7.247,16.507,7.199,21.29,2.365
		c2.797,5.612-5.896,8.759-9.461,11.827C617.385,262.223,605.161,246.849,594.52,229.896z M411.192,290.216
		c-20.923,5.807-17.386,47.96-2.365,52.042c43.706,11.868,25.485-60.775-3.549-34.3c-0.123-16.286,30.324-2.008,29.569-18.924
		C425.595,290.995,418.673,288.139,411.192,290.216z M155.719,312.688c3.593,0.741,10.186-1.517,11.827,1.184
		c0,9.067,0,18.135,0,27.2c2.238,2.099,7.811,0.861,11.827,1.186c0-9.858,0-19.713,0-29.569c3.941,0,7.886,0,11.827,0
		c0-2.759,0-5.521,0-8.278c-9.172-2.656-23.184-0.472-34.299-1.184C155.832,305.831,157.068,308.304,155.719,312.688z
		 M206.576,343.441c-2.55,3.085-6.542,6.554-11.827,3.546c-0.91,4.458,1.441,5.655,1.182,9.462
		c30.615,1.05,24.467-34.67,35.483-53.223c-3.55,0-7.096,0-10.645,0c-3.206,7.44-5.042,16.247-8.281,23.653
		c-4.206-6.833-4.8-17.277-9.461-23.653c-3.546,0-7.096,0-10.643,0C196.304,317.443,202.924,328.956,206.576,343.441z
		 M236.145,303.227c-2.711,15.029-0.43,35.05-1.184,52.039c2.156,1.809,9.673,1.809,11.83,0c0-5.521,0-11.036,0-16.555
		c33.931,21.358,32.884-54.261-1.185-31.938C247.292,300.753,239.651,304.055,236.145,303.227z M278.725,342.258
		c3.547,0,7.096,0,10.644,0c0.76-4.761-1.538-12.576,1.184-15.378c4.993,2.894,5.757,10.016,8.278,15.378
		c8.972-0.492,20.085,1.158,27.203-1.186c4.723-7.132,0.803-22.21,3.549-28.384c4.017,0.321,9.589-0.915,11.827,1.184
		c-0.76,7.498,0.457,17.874,0,28.386c3.549,0,7.096,0,10.646,0c-0.729-12.678,1.494-28.304-1.184-39.031
		c-10.643,0-21.289,0-31.935,0c-2.623,7.627-0.493,20.005-1.181,29.569c-5.518,0.554-6.998,0.764-8.281,7.093
		c-1.611-8.243-7.337-12.374-10.645-18.924c2.92-4.57,5.484-9.494,10.645-11.824c0-1.578,0-3.156,0-4.73
		c-13.088-6.19-13.626,9.881-20.106,14.192c0-5.126,0-10.251,0-15.376c-3.547,0-7.097,0-10.644,0
		C278.725,316.234,278.725,329.248,278.725,342.258z M354.42,305.59c5.802,11.545,10.528,24.169,14.192,37.852
		c-1.393,6.188-10.164,2.569-11.827,5.914c2.611,0.145,0.503,5.014,1.182,7.094c30.967,1.396,24.794-34.343,35.483-53.223
		c-3.549,0-7.096,0-10.646,0c-3.289,7.749-3.706,18.369-9.461,23.653c-1.403-8.845-5.2-15.298-7.097-23.653
		C362.146,303.856,355.029,301.471,354.42,305.59z M652.475,404.941c-9.77-3.845-20.301-7.988-30.753-9.463
		c-7.354-13.937-19.059-23.518-21.292-42.577c-4.23-6.472-12.835-1.641-20.102-1.182c8.879,12.017,11.435,30.352,20.102,42.577
		c-6.376,6.632-2.594,22.585,1.185,29.568c8.798,3.627,13.113-3.104,18.924-5.91c5.048,4.509,14.836,13.895,23.658,7.094
		c1.936-4.79-6.262-5.443-2.368-8.277c10.132,7.877,21.402,5.217,34.301,3.548C674.761,409.24,660.9,408.262,652.475,404.941z
		 M439.577,352.901c-2.887-2.021-8.446,1.185-14.192,0c0.361,5.093,0.084,9.545-4.73,9.463c-2.272-5.059-9.775-3.418-14.193-1.185
		C403.692,390.591,447.826,379.53,439.577,352.901z M167.546,357.634c-16.958,2.757-39.028,0.395-57.956,1.183
		c5.243,21.172,2.52,50.307,4.731,74.516c0.697,4.238-7.063,0.028-5.913,4.73c-0.84,4.384,2.019,5.071,1.182,9.461
		c8.28,0,16.56,0,24.837,0c0-4.337,0-8.677,0-13.014c-2.079-0.678-6.949,1.43-7.095-1.178c0-20.502,0-41.005,0-61.507
		c15.347-0.76,28.156,1.021,42.579,1.184C169.011,367.995,172.089,359,167.546,357.634z M272.81,371.825
		c-0.854,1.72-0.303,9.934,1.185,13.009c-0.573,2.975,5.421-2.849,5.912,1.185c0.06,20.838,1.208,40.584,2.365,60.32
		c4.336,0,8.675,0,13.011,0c1.076-8.589-1.641-19.62,0-24.838c5.842,7.167,12.905,13.115,17.742,21.292c7.096,0,14.192,0,21.288,0
		c-0.478-5.043,1.146-12.186-1.181-15.378c-5.039,0.089-8.273,1.979-14.195,1.181c-20.759-12.624-6.408-35.96,10.646-42.577
		c-5.945-2.334-7.291-9.269-14.192-10.646c-10.34,5.432-14.896,16.646-21.292,26.022c0.475-12.303-2.498-21.156-2.365-33.116
		C285.003,369.034,280.058,371.586,272.81,371.825z M336.679,377.74c-11.425,34.681,1.841,83.571,40.214,60.322
		c-0.176,2.93-0.222,5.737,2.365,5.91c3.968-2.733,12.989-0.414,18.923-1.18c-1.691-5.01-0.469-12.937-2.365-17.744
		c-4.189-1.333-6.73,4.972-9.461,1.185c0-16.165,0-32.326,0-48.493c-4.336,0-8.675,0-13.011,0
		c-1.008,21.032,3.13,54.143-16.559,50.855c-16.139-2.69-4.336-36.21-7.095-49.672C344.044,379.834,342.075,377.071,336.679,377.74z
		 M438.394,436.878c-1.627,10.693,14.052,4.082,21.291,5.915c0.708-7.018-2.074-10.545-1.184-17.744
		c-4.269-1.04-7.894,4.62-10.646,1.185c0.529-15.618-1.203-38.539,1.184-48.493c-4.73,0-9.462,0-14.192,0
		c0.144,22.488,3.661,52.939-15.376,50.855c-16.864-1.844-6.338-32.938-7.097-49.672c-6.052,0.926-8.59-1.66-14.192-1.184
		C387.909,414.365,401.591,462.741,438.394,436.878z M246.791,484.186c39.629,6.262,26.635-44.344,24.835-70.961
		c-0.31-4.626,0.821-9.534,0-13.014c-6.153-26.091-49.912-18.221-54.404,3.551c-7.546,36.563,20.773,53.319,43.761,31.933
		c3.47,13.865,6.788,32.302-7.096,34.3c-10.208,1.468-13.841-7.609-22.473-11.83C209.289,462.313,233.053,482.017,246.791,484.186z
		 M184.104,395.479c-21.438-5.6-33.696,8.048-40.214,21.293c-6.942,31.488,29.348,35.156,46.129,22.471c0,1.972,0,3.944,0,5.914
		c9.731-0.91,18.519-2.769,28.384-3.548c-1.148-5.947-0.719-13.476-4.73-16.56c-3.554,2.012-12.034,3.918-15.376,2.366
		c-0.794-13.806,1.109-24.913,1.185-37.851c-5.125,0-10.251,0-15.377,0C184.104,391.539,184.104,393.511,184.104,395.479z
		 M537.745,434.51c-0.654-6.569-6.906-9.592-13.008-7.095C503.431,436.133,540.113,458.318,537.745,434.51z M504.63,446.339
		c13.065-0.177,11.737-24.446-3.547-17.743C491.583,432.763,493.686,446.484,504.63,446.339z M593.336,446.339
		c-0.553,12.455-1.356,24.661-3.547,35.484c-6.507-0.593-15.497,1.305-20.107-1.184c0.424-12.644-2.146-22.302-2.367-34.301
		c-7.859,0.42-15.103,1.459-20.107,4.731c3.019,1.318-0.472,9.149,2.368,10.646c1.516,3.706,5.63-2.574,5.915,2.364
		c0.837,20.453-0.111,42.688,3.547,60.32c1.642-2.695,8.229-0.442,11.829-1.184c0.298-9.365-0.082-18.058-1.185-26.018
		c4.577-1.761,16.768-2.116,21.286,0c0.91,9.972-1.828,16.3-1.179,26.018c4.337,0,8.672,0,13.009,0
		c2.513-19.174,1.197-42.168,3.548-61.501c2.944,0.131,3.662,2.214,5.914,0c-0.698-5.037,0.852-7.824,1.184-11.829
		C607.389,448.568,598.192,445.011,593.336,446.339z M672.581,449.887c-0.915,5.645,1.849,7.613,1.184,13.013
		c2.931,1.53,5.737-2.642,5.91,0c1.362,20.324,0.919,42.448,3.552,61.501c5.396,0.67,7.363-2.098,13.008-1.184
		c-1.529-5.977-2.275-18.981,0-24.838c5.093,8.706,12.667,14.928,18.924,22.476c5.028-2.069,13.312-0.881,20.107-1.185
		c0.822-5.949-2.007-8.244-1.185-14.193c-5.919-0.794-9.152,1.094-14.191,1.186c-19.419-10.444-10.058-38.068,9.462-41.399
		c-3.104-5.567-8.663-8.682-13.01-13.007c-10.365,5.403-15.309,16.231-21.29,26.016c-1.974-9.851-1.401-22.248-3.548-31.933
		C684.049,446.374,679.112,448.929,672.581,449.887z M485.707,492.469c1.501,36.321,43.654,36.941,68.598,17.739
		c-2.284-4.419-3.546-9.855-8.276-11.829c-11.786,4.722-41.235,21.902-42.583-3.546c15.709-2.427,31.437-4.833,47.313-7.1
		C552.256,439.654,483.786,446.013,485.707,492.469z M451.407,461.716c-13.384-10.697-26.771-0.905-48.495-3.552
		c0,4.735,0,9.467,0,14.197c3.209,0.732,9.387-1.501,10.646,1.179c-0.826,15.343-2.58,29.752-3.55,44.946c4.336,0,8.675,0,13.011,0
		c6.398-14.103-6.208-47.213,15.374-46.125c3.407,14.553-0.438,31.808,0,47.309c5.8,0.275,8.956-2.084,15.376-1.184
		c3.176-14.26-6.3-42.168,4.731-44.946c13.889-3.492,10.429,30.19,10.646,46.13c4.73,0,9.461,0,14.192,0
		C485.009,489.39,483.016,447.293,451.407,461.716z M385.17,461.716c4.428,19.708,1.021,50.119-17.739,43.761
		c-11.531-3.906-3.438-29.534-5.915-44.944c-4.731,0-9.461,0-14.193,0c-3.686,28.616-2.774,64.186,26.02,60.322
		c7.327-0.987,10.578-7.995,16.558-8.283c2.002,12.863,6.071,30.035-5.913,33.121c-10.918,2.805-15.966-7.483-24.837-11.83
		c-3.172,2.743-7.947,3.884-9.462,8.277c9.456,12.547,30.384,25.118,43.761,14.197c19.816-16.18,6.605-69.085,2.366-96.989
		C393.025,460.893,387.642,459.849,385.17,461.716z M608.712,500.747c2.402,30.564,67.893,38.703,68.6,1.184
		c0.381-20.353-20.737-37.251-39.03-34.3C622.51,470.167,607.23,481.919,608.712,500.747z"/>
</g>
</svg>
