<?xml version="1.0" encoding="utf-8"?>
<!-- Generator: Adobe Illustrator 15.0.0, SVG Export Plug-In . SVG Version: 6.00 Build 0)  -->
<!DOCTYPE svg PUBLIC "-//W3C//DTD SVG 1.1//EN" "http://www.w3.org/Graphics/SVG/1.1/DTD/svg11.dtd">
<svg version="1.1" id="Слой_1" xmlns="http://www.w3.org/2000/svg" xmlns:xlink="http://www.w3.org/1999/xlink" x="0px" y="0px"
	 width="170.08px" height="113.39px" viewBox="0 0 170.08 113.39" enable-background="new 0 0 170.08 113.39" xml:space="preserve">
<g>
	<path fill="#FFFFFF" d="M105.211,1.46c-6.277,1.063-13.912,5.021-12.75,12.75c0.236,1.58,1.563,2.061,1.365,3.644
		c-1.09,0.64-2.881-0.5-4.098,0.228c-0.156,2.965,2.154,3.462,4.326,4.098c0.428,0.939,0.012,2.722,0.91,3.188
		c2.986,0.753,3.977-2.17,5.92-3.188c2.684,1.111,3.947,3.644,7.285,4.099c1.492,2.352,0.852,6.232,0,9.107
		c-0.664,2.249-1.689,6.177-3.414,7.286c-0.947,0.608-5.895,2.102-7.059,2.049c-1.18-0.053-2.133-1.479-3.643-1.821
		c-0.902-0.204-1.836,0.238-2.504,0c-2.219-0.792-2.758-4.256-5.01-4.326c-1.854,1.872-1.809,4.306-4.553,4.781
		c-1.592,0.276-2.873-0.688-4.326,0c-1.9,0.897-1.568,2.933-3.188,4.326c-1.205-0.156-2.639-0.16-3.871,0.684
		c-3.393-0.55-3.92-3.419-6.148-5.92c-1.094-1.23-2.705-2.59-4.098-3.871c-1.324-1.218-3.258-3.341-4.553-3.415
		c-2.91-0.167-6.177,4.509-8.653,6.375c-3.936,2.967-8.92,1.726-11.611,5.464c-1.802-0.172-2.531,0.993-4.326,1.367
		c-0.676,2.207-1.201,4.566-2.049,6.603c-3.204,0.211-3.938,2.894-5.237,5.008c-5.136-0.81-5.479,3.173-5.691,7.287
		c0-21.934,0-43.867,0-65.8C47.227,1.46,76.221,1.46,105.211,1.46z"/>
	<path fill="#010202" d="M105.211,1.46c0.91,0,1.82,0,2.73,0c6.105,1.058,10.484,5.382,12.523,10.246
		c3.758,8.96-6.869,18.895-1.82,27.321c2.189-0.18,4.756,0.676,6.375-0.91c1.268,0.099,1.061,1.672,2.049,2.049
		c3.588-1.357,3.807-4.025,7.059-4.781c5.486-1.276,7.912,4.882,10.473,8.196c1.662,2.151,3.598,4.115,3.414,6.147
		c-0.258,2.915-3.949,3.865-7.057,4.554c-4.25,2.908-3.32,7.589-2.732,12.75c0.133,1.156-0.277,2.505,0,3.644
		c0.98,4.021,7.314,3.941,8.426,7.285c-1.945,7.019,6.721,6.782,9.105,10.93c0,0.53,0,1.063,0,1.593
		c-0.488,2.282-2.156,3.437-2.504,5.92c-0.547,3.896,1.795,7.188-2.961,7.969c-4.359,0.716-9.516-1.386-14.115-0.684
		c-1.764,0.271-3.635,2.009-5.465,2.05c-2.055,0.046-4.109-2.112-6.604-2.277c-2.668-0.176-5.672,1.896-8.424,1.822
		c-1.191-0.032-2.428-0.919-4.098-1.139c-4.154-0.546-8.395,2.331-11.84,1.821c-2.389-0.354-4.295-2.251-6.375-2.049
		c-0.789,0.076-4.051,1.575-4.781,2.277c-0.984,0.946-0.854,2.769-2.049,3.869c-1.639,1.51-3.971,1.048-6.604,1.367
		c-2.963,0.358-5.217,1.054-7.512-0.684c-2.973-2.25-5.941-8.576-6.148-13.433c-0.098-2.285,1.176-4.844-0.91-6.375
		c-2.898,0.891-5.83,2.005-8.197,3.415c-1.139,0.679-2.695,2.433-4.098,2.504c-3.74,0.192-7.805-6.581-10.702-7.968
		c-6.201-2.971-12.004,1.469-19.581,0.683c-3.64-3.646-3.568-11.004-4.553-17.305c0-1.669,0-3.339,0-5.008
		c0.212-4.114,0.556-8.097,5.691-7.287c1.3-2.115,2.033-4.797,5.237-5.009c0.848-2.035,1.373-4.395,2.049-6.603
		c1.795-0.373,2.524-1.538,4.326-1.366c2.691-3.739,7.676-2.497,11.611-5.464c2.476-1.866,5.743-6.542,8.653-6.375
		c1.295,0.073,3.229,2.196,4.553,3.415c1.393,1.281,3.004,2.64,4.098,3.87c2.229,2.502,2.756,5.37,6.148,5.92
		c1.232-0.843,2.666-0.839,3.871-0.684c1.619-1.393,1.287-3.428,3.188-4.325c1.453-0.688,2.734,0.275,4.326,0
		c2.744-0.476,2.699-2.909,4.553-4.781c2.252,0.07,2.791,3.533,5.01,4.326c0.668,0.238,1.602-0.205,2.504,0
		c1.51,0.341,2.463,1.768,3.643,1.821c1.164,0.052,6.111-1.44,7.059-2.05c1.725-1.108,2.75-5.037,3.414-7.286
		c0.852-2.874,1.492-6.756,0-9.106c-3.338-0.456-4.602-2.987-7.285-4.099c-1.943,1.018-2.934,3.941-5.92,3.188
		c-0.9-0.466-0.482-2.249-0.91-3.188c-2.172-0.637-4.482-1.134-4.326-4.099c1.217-0.728,3.008,0.412,4.098-0.228
		c0.197-1.582-1.127-2.063-1.365-3.643C91.299,6.481,98.934,2.523,105.211,1.46z M115.002,33.563
		c-0.543-7.278,4.635-13.043,3.414-20.491c-0.641-3.91-5.145-8.37-9.107-9.335c-7.027-1.712-13.139,2.956-13.434,9.335
		c0.582,1.383,1.707,1.01,3.189,1.821c1.273,0.696,1.898,1.803,2.73,2.049c0.975,0.288,2.094-0.216,3.189,0
		c1.967,0.388,3.803,2.524,6.373,1.821c-2.576,1.674-6.885,1.615-9.789,2.96c-0.002,0.912,1.066,0.755,1.365,1.366
		c2.057-1.661,7.457,0.791,9.107-1.594c-0.332-2.693,2.326-5.106,4.326-2.731c0.873,3.536-3.074,4.797-3.869,6.603
		c-0.754,1.703,0.102,4.247-0.229,6.147c-0.273,1.568-0.951,3.5-1.367,5.009c-1.949,7.081-4.359,8.673-11.611,10.701
		c2.037-0.753,3.367,0.574,3.871,2.049c-2.164,5.345-0.123,11.235,3.869,13.433c3.436,1.892,7.357,0.478,11.385,1.367
		c-0.406-4.072-3.893-6.277-2.959-10.929c2.238-0.063,2.76-0.098,4.781-0.911c-0.07-1.067-1.355-0.921-1.594-1.821
		c0.484-0.957,1.727-1.158,2.049-2.276C118.107,44.038,115.441,39.49,115.002,33.563z M127.297,51.095
		c0.686-0.591,2.359-1.196,1.82-2.277c-0.92,0.931-3.623,0.94-4.098-0.455c2.035-0.392,2.662-2.194,4.781-2.505
		c0.977-1.375,0.711-3.993,1.82-5.236c0.455,0,0.91,0,1.367,0c0.576,0.614,0.18,0.884,0.455,1.594
		c1.186-0.18,1.65-1.081,2.959-1.139c0.484,2.837-1.588,3.116-2.959,4.099c0.295,1.04-0.566,2.354,0.227,2.504
		c2.424-1.144,3.385-3.75,4.555-6.146c2.902,3.77-3.01,5.298-3.871,8.196c3.277,0.758,5.791-2.13,6.375-4.099
		c0.654-0.047,1.156,0.058,1.365,0.456c0.432,1.567-1.027,1.248-1.137,2.276c0.822,0.159,2.086,0.052,2.275,1.366
		c-5.334,0.455-9.031,5.07-12.977,4.781c0.92,0.673,2.369,0.819,2.732,2.049c0.059,1.274-1.139,1.29-1.139,2.505
		c0.254,1.036,0.855,1.724,1.139,2.731c-0.494,0.721-1.086,1.344-2.504,1.139c-1.947-1.772-3.219-4.22-5.465-5.691
		c0.766,3.61,2.703,6.741,3.414,10.929c-1.082,0.313-2.084-0.181-3.188-0.456c-0.57-1.707-2.135-2.419-2.049-4.781
		c-1.121-1.61-1.889-3.575-2.961-5.236c0.002-1.336-1.189-3.757-1.82-2.96c0.266,3.149,2.791,6.012,4.098,8.879
		c-1.773,2.324-6.311,1.886-9.563,2.733c1.137,5.528-1.959,6.967-4.098,9.335c-1.479,1.637-4.164,4.594-6.83,4.098
		c-1.482-0.276-2.074-2.492-3.871-2.049c-0.6-0.504,0.174-1.517-0.229-1.821c-0.984-0.076-2.385,0.26-2.73-0.456
		c-0.023-0.934-0.045-1.865,0.227-2.504c1.566-0.426,3.055-1.394,4.555-1.366c0.92,0.017,1.516,0.809,2.504,0.91
		c1.699,0.176,3.549-0.982,5.463-0.228c0.742-1.662,1.631-4.385,0.686-6.375c-5.197-1.863-8.221-5.897-9.564-11.611
		c-2.664,0.017-5.08,4.275-7.285,1.821c0.855-0.854,2.439-1.722,3.869-2.505c1.348-0.736,3.568-1.309,2.961-2.732
		c-1.775,2.333-9.309,3.92-9.789,0c2.232-0.138,6.748,1.919,7.74-1.139c-4.232-0.252-9.211,0.196-12.523-1.821
		c0.926-1.275,3.953-0.449,5.693-0.91c0.867-1.182,2.709-1.388,4.781-1.366c-0.482-1.386-1.615-0.478-2.961-0.455
		c-1.781-1.179-2.396-3.523-4.781-4.099c-1.166,2.103-1.207,4.088-3.414,4.554c-1.35,0.284-2.82-0.831-4.326-0.455
		c-2.348,0.585-1.602,4.08-4.1,4.554c-0.699,0.169-0.436-0.625-1.137-0.456c-0.992,0.688-1.799,1.227-2.732,1.366
		c-4.898,0.734-5.615-3.959-8.652-6.83c-2.301-2.176-4.939-5.132-6.375-5.236c-2.752-0.202-4.851,2.855-6.603,4.326
		c-3.424,2.419-9.176,2.511-11.84,5.691c-1.708-0.766-1.723,1.231-3.643,0.911c-0.339,2.394-1.263,4.201-1.594,6.603
		c-2.088,0.265-2.496,2.209-4.554,2.505c-0.554,2.254-1.312,4.304-4.781,3.643c-0.854,0.738-1.373,1.814-2.049,2.731
		c-0.395,8.23-0.139,16.915,3.415,21.858c5.121,1.09,13.829-3.208,19.125-0.456c3.416,1.774,6.384,7.955,10.474,7.514
		c1.969-0.213,3.98-2.591,5.92-3.415c2.385-1.015,4.215-1.842,6.83-2.505c2.256,1.815,1.318,5.021,1.594,7.969
		c0.559,6.011,3.906,13.853,10.246,13.206c3.885-0.396,8.695-2.447,9.334-6.375c2.523-0.254,3.658-1.673,6.148-1.594
		c2.375,0.075,4.398,2.145,6.602,2.276c3.049,0.184,6.49-2.355,10.475-1.821c1.299,0.175,2.406,1.097,3.643,1.139
		c2.805,0.096,5.232-1.963,7.969-1.821c1.883,0.098,3.717,1.797,5.691,2.049c2.301,0.293,3.246-0.912,4.781-1.139
		c5.539-0.815,11.277,2.561,16.393-0.683c0.713-1.593-0.41-3.392-0.227-5.464c0.275-3.124,2.92-5.035,2.504-7.287
		c-0.699-3.788-11.736-4.356-8.652-10.473c-1.059-3.479-7.506-2.068-8.424-6.147c-0.281-1.248,0.521-2.705,0.455-4.099
		c-0.061-1.299-0.773-2.627-0.91-4.099c-0.408-4.386,0.486-8.477,3.188-10.7c2.535-0.046,3.711-1.45,6.148-1.594
		c1.912-2.916-1.75-5.558-3.643-8.424c-1.008-1.523-2.113-4.343-3.645-4.782c-5.594-1.604-6.295,4.399-10.246,5.692
		c-1.072-0.294-0.818-1.912-2.049-2.049c-1.002,0.77-3.301,0.994-4.098,0.683C122.059,45.706,124.412,48.666,127.297,51.095z"/>
	<path fill="#FFFFFF" d="M107.941,1.46c15.939,0,31.877,0,47.814,0c0,29.144,0,58.286,0,87.431
		c-2.385-4.147-11.051-3.911-9.107-10.93c-1.109-3.344-7.443-3.264-8.424-7.285c-0.277-1.139,0.131-2.487,0-3.644
		c-0.588-5.161-1.518-9.842,2.732-12.75c3.107-0.688,6.799-1.639,7.057-4.554c0.182-2.032-1.752-3.996-3.414-6.147
		c-2.561-3.314-4.986-9.473-10.473-8.196c-3.252,0.757-3.471,3.424-7.059,4.781c-0.988-0.377-0.781-1.95-2.049-2.049
		c-1.619,1.586-4.188,0.73-6.375,0.91c-5.051-8.427,5.578-18.361,1.82-27.321C118.426,6.842,114.047,2.518,107.941,1.46z"/>
	<path fill="#FFFFFF" d="M120.693,48.135c-0.324,1.119-1.564,1.32-2.049,2.277c0.236,0.899,1.521,0.754,1.592,1.821
		c-2.02,0.813-2.541,0.848-4.779,0.91c-0.934,4.652,2.553,6.857,2.959,10.929c-4.027-0.89-7.949,0.524-11.385-1.366
		c-3.994-2.198-6.033-8.089-3.871-13.433c-0.504-1.475-1.832-2.802-3.869-2.049c7.252-2.028,9.66-3.62,11.611-10.702
		c0.416-1.508,1.094-3.44,1.365-5.008c0.332-1.9-0.523-4.444,0.229-6.147c0.797-1.806,4.744-3.066,3.871-6.604
		c-2-2.374-4.658,0.039-4.326,2.732c-1.65,2.384-7.051-0.067-9.107,1.594c-0.299-0.611-1.367-0.454-1.367-1.366
		c2.906-1.346,7.215-1.287,9.791-2.96c-2.572,0.702-4.406-1.434-6.375-1.822c-1.094-0.215-2.215,0.289-3.188,0
		c-0.832-0.245-1.459-1.352-2.732-2.048c-1.482-0.812-2.607-0.439-3.188-1.821c0.295-6.379,6.406-11.048,13.434-9.336
		c3.963,0.966,8.467,5.426,9.107,9.336c1.219,7.448-3.957,13.213-3.416,20.49C115.441,39.49,118.107,44.038,120.693,48.135z
		 M102.707,16.715c0.871-0.95,3.092-0.549,4.098-1.366C106.752,10.204,97.955,13.756,102.707,16.715z"/>
	<path fill="#010202" d="M106.805,15.349c-1.006,0.816-3.227,0.416-4.098,1.366C97.955,13.756,106.752,10.204,106.805,15.349z"/>
	<path fill="#010202" d="M89.273,53.827c0.145,3.256-5.717,0.508-5.693,3.643c5.59-5.097,9.098,8.888,0.684,6.603
		c-2.891-0.785-3.572-8.899,0.455-10.018C86.16,53.654,87.492,54.205,89.273,53.827z M84.264,59.291
		c-0.221,1.967,0.109,3.382,2.277,2.96C88.561,60.542,85.943,56.711,84.264,59.291z"/>
	<path fill="#010202" d="M35.768,56.56c2.14,0.137,4.837-0.284,6.603,0.228c0,0.531,0,1.063,0,1.594c-0.759,0-1.519,0-2.277,0
		c0,1.897,0,3.794,0,5.691c-0.772-0.062-1.846,0.176-2.276-0.228c0-1.745,0-3.491,0-5.236c-0.316-0.52-1.585-0.085-2.276-0.228
		C35.8,57.536,35.562,57.061,35.768,56.56z"/>
	<path fill="#010202" d="M42.598,56.56c0.684,0,1.366,0,2.049,0c0.897,1.227,1.012,3.237,1.821,4.553
		c0.624-1.426,0.978-3.121,1.595-4.553c0.683,0,1.365,0,2.049,0c-2.12,3.571-0.938,10.447-6.83,10.245
		c0.05-0.732-0.403-0.963-0.228-1.821c1.017,0.579,1.785-0.089,2.276-0.683C44.627,61.512,43.353,59.296,42.598,56.56z"/>
	<path fill="#010202" d="M52.844,57.242c6.559-4.298,6.76,10.26,0.229,6.147c0,1.063,0,2.124,0,3.188
		c-0.416,0.348-1.863,0.348-2.278,0c0.146-3.271-0.294-7.125,0.229-10.018C51.698,56.719,53.168,56.083,52.844,57.242z
		 M53.072,59.063c-0.172,1.917,0.025,3.466,1.82,3.415C57.207,61.259,54.943,56.18,53.072,59.063z"/>
	<path fill="#010202" d="M59.219,56.56c0.684,0,1.367,0,2.049,0c0,0.986,0,1.973,0,2.96c1.248-0.83,1.352-3.924,3.871-2.732
		c0,0.303,0,0.606,0,0.91c-0.994,0.449-1.486,1.396-2.049,2.276c0.637,1.261,1.738,2.057,2.049,3.643
		c0.246-1.218,0.531-1.259,1.594-1.365c0.133-1.841-0.277-4.224,0.229-5.691c2.049,0,4.098,0,6.146,0
		c0.516,2.064,0.088,5.073,0.229,7.513c-0.684,0-1.367,0-2.049,0c0.088-2.023-0.146-4.021,0-5.464
		c-0.432-0.404-1.504-0.166-2.277-0.228c-0.529,1.188,0.227,4.091-0.684,5.464c-1.369,0.451-3.51,0.133-5.236,0.228
		c-0.486-1.031-0.633-2.402-1.594-2.96c-0.523,0.539-0.082,2.044-0.229,2.96c-0.682,0-1.365,0-2.049,0
		C59.219,61.568,59.219,59.063,59.219,56.56z"/>
	<path fill="#010202" d="M76.068,56.56c0.365,1.608,1.096,2.851,1.365,4.553c1.107-1.017,1.188-3.062,1.82-4.553
		c0.684,0,1.367,0,2.051,0c-2.059,3.634-0.869,10.514-6.832,10.245c-0.129-0.4,0.275-1.338-0.227-1.365
		c0.32-0.645,2.008,0.053,2.277-1.139c-0.707-2.634-1.615-5.064-2.732-7.287C73.908,56.221,75.277,56.681,76.068,56.56z"/>
	<path fill="#FFFFFF" d="M54.893,62.479c-1.795,0.051-1.992-1.498-1.82-3.415C54.943,56.18,57.207,61.259,54.893,62.479z"/>
	<path fill="#FFFFFF" d="M86.541,62.251c-2.168,0.422-2.498-0.993-2.277-2.96C85.943,56.711,88.561,60.542,86.541,62.251z"/>
	<path fill="#010202" d="M135.721,79.1c-2.484,0.321-4.652,0.833-6.604-0.683c-0.75,0.545,0.828,0.671,0.455,1.593
		c-1.697,1.31-3.582-0.497-4.553-1.365c-1.119,0.54-1.949,1.836-3.645,1.138c-0.727-1.345-1.455-4.416-0.227-5.692
		c-1.67-2.354-2.162-5.883-3.871-8.196c1.4-0.088,3.057-1.018,3.871,0.229c0.43,3.669,2.682,5.513,4.098,8.195
		c2.012,0.284,4.039,1.082,5.92,1.822C132.789,76.778,135.457,76.967,135.721,79.1z"/>
	<path fill="#010202" d="M83.809,67.715c0.85-0.43,2.295-0.745,2.732,0.229c0.926,0.016,0.98-0.841,0.91-1.821
		c1.107,0.228,2.176-0.39,2.732,0C91.771,71.248,83.275,73.377,83.809,67.715z"/>
	<path fill="#010202" d="M38.272,69.992c-2.776-0.031-5.241-0.374-8.196-0.228c0,3.946,0,7.894,0,11.84
		c0.028,0.502,0.966,0.097,1.366,0.227c0,0.835,0,1.671,0,2.506c-1.594,0-3.188,0-4.781,0c0.161-0.846-0.39-0.978-0.228-1.821
		c-0.222-0.905,1.272-0.095,1.138-0.911c-0.425-4.66,0.099-10.269-0.91-14.344c3.644-0.152,7.893,0.303,11.156-0.229
		C38.692,67.296,38.099,69.027,38.272,69.992z"/>
	<path fill="#010202" d="M61.723,69.082c-0.025,2.302,0.547,4.006,0.455,6.375c1.232-1.806,2.109-3.964,4.1-5.01
		c1.328,0.266,1.588,1.601,2.732,2.05c-3.283,1.273-6.045,5.766-2.049,8.196c1.139,0.153,1.762-0.211,2.732-0.228
		c0.447,0.614,0.135,1.989,0.227,2.96c-1.365,0-2.732,0-4.098,0c-0.932-1.574-2.291-2.719-3.416-4.099
		c-0.316,1.005,0.207,3.128,0,4.781c-0.834,0-1.67,0-2.504,0c-0.223-3.799-0.443-7.601-0.455-11.611
		c-0.096-0.776-1.25,0.345-1.139-0.229c-0.287-0.592-0.393-2.173-0.229-2.504C59.477,69.719,60.428,69.228,61.723,69.082z"/>
	<path fill="#010202" d="M72.881,71.131c0.531,2.592-1.742,9.044,1.365,9.563c3.791,0.633,2.994-5.741,3.188-9.79
		c0.834,0,1.67,0,2.504,0c0,3.112,0,6.224,0,9.335c0.527,0.729,1.016-0.484,1.822-0.229c0.365,0.926,0.129,2.452,0.455,3.416
		c-1.143,0.147-2.879-0.299-3.643,0.228c-0.498-0.033-0.49-0.574-0.455-1.138c-7.387,4.476-9.941-4.937-7.742-11.612
		C71.414,70.774,71.793,71.307,72.881,71.131z"/>
	<path fill="#010202" d="M82.215,70.903c1.078-0.092,1.566,0.405,2.732,0.228c0.146,3.222-1.881,9.207,1.365,9.563
		c3.666,0.4,2.988-5.461,2.961-9.79c0.91,0,1.82,0,2.732,0c-0.461,1.916-0.127,6.328-0.229,9.335
		c0.529,0.661,1.227-0.429,2.049-0.229c-0.172,1.386,0.365,2.065,0.229,3.416c-1.395-0.353-4.412,0.92-4.1-1.139
		C82.871,87.266,80.238,77.953,82.215,70.903z"/>
	<path fill="#010202" d="M50.112,86.385c1.661,0.813,2.361,2.56,4.326,2.277c2.674-0.385,2.035-3.934,1.367-6.603
		c-4.425,4.117-9.877,0.891-8.424-6.147c0.864-4.19,9.288-5.706,10.473-0.684c0.156,0.67-0.061,1.615,0,2.505
		c0.346,5.124,2.848,14.866-4.781,13.66C50.427,90.977,45.853,87.184,50.112,86.385z M51.25,80.693
		c3.1,0.919,4.758-2.409,3.872-5.465C51.831,72.073,48.575,77.918,51.25,80.693z"/>
	<path fill="#FFFFFF" d="M18.237,72.269c0.985,6.301,0.913,13.659,4.553,17.305c7.577,0.786,13.38-3.653,19.581-0.683
		c2.896,1.387,6.962,8.16,10.702,7.968c1.402-0.071,2.959-1.825,4.098-2.504c2.367-1.41,5.299-2.524,8.197-3.415
		c2.086,1.531,0.813,4.09,0.91,6.375c0.207,4.856,3.176,11.183,6.148,13.433c2.295,1.737,4.549,1.042,7.512,0.684
		c2.633-0.318,4.965,0.143,6.604-1.367c1.197-1.101,1.064-2.923,2.049-3.869c0.73-0.702,3.992-2.201,4.781-2.277
		c2.08-0.202,3.986,1.695,6.375,2.049c3.445,0.51,7.686-2.367,11.84-1.821c1.67,0.22,2.906,1.106,4.098,1.139
		c2.752,0.074,5.756-1.998,8.424-1.822c2.494,0.165,4.549,2.323,6.604,2.277c1.83-0.042,3.701-1.779,5.465-2.05
		c4.6-0.702,9.756,1.399,14.115,0.684c4.756-0.78,2.414-4.073,2.961-7.969c0.348-2.483,2.016-3.638,2.504-5.92
		c0,7.286,0,14.572,0,21.857c-45.84,0-91.678,0-137.519,0C18.237,98.983,18.237,85.626,18.237,72.269z"/>
	<path fill="#010202" d="M41.004,73.18c0.987,0,1.974,0,2.96,0c-0.014,2.49-0.381,4.628-0.228,7.286
		c0.644,0.299,2.275-0.068,2.96-0.456c0.771,0.594,0.689,2.043,0.91,3.188c-1.899,0.149-3.591,0.508-5.464,0.683
		c0-0.379,0-0.759,0-1.139c-3.23,2.442-10.216,1.736-8.88-4.325c1.255-2.55,3.614-5.177,7.741-4.1
		C41.004,73.939,41.004,73.56,41.004,73.18z M35.996,79.782c0.432,2.443,4.721,1.628,5.464-0.455
		C40.771,75.731,35.453,76.711,35.996,79.782z"/>
	<path fill="#FFFFFF" d="M55.121,75.229c0.887,3.056-0.771,6.384-3.871,5.465C48.575,77.918,51.831,72.073,55.121,75.229z"/>
	<path fill="#FFFFFF" d="M41.459,79.327c-0.743,2.083-5.032,2.898-5.464,0.455C35.453,76.711,40.771,75.731,41.459,79.327z"/>
	<path fill="#010202" d="M106.576,80.466c1.176-0.48,2.379,0.101,2.504,1.365C109.537,86.415,102.477,82.144,106.576,80.466z"/>
	<path fill="#010202" d="M102.023,80.693c2.941-1.291,3.197,3.381,0.684,3.415C100.6,84.137,100.195,81.495,102.023,80.693z"/>
	<path fill="#010202" d="M123.652,84.791c-0.063,0.771-0.361,1.308-0.227,2.277c-0.434,0.427-0.572,0.025-1.139,0
		c-0.453,3.722-0.199,8.148-0.684,11.839c-0.834,0-1.67,0-2.504,0c-0.125-1.87,0.402-3.089,0.227-5.008
		c-0.869-0.407-3.217-0.34-4.098,0c0.213,1.532,0.285,3.205,0.229,5.008c-0.693,0.143-1.961-0.291-2.277,0.229
		c-0.705-3.395-0.521-7.675-0.684-11.612c-0.055-0.95-0.846,0.259-1.139-0.455c-0.547-0.287,0.125-1.795-0.455-2.049
		c0.963-0.63,2.357-0.83,3.871-0.911c0.043,2.311,0.537,4.169,0.455,6.604c0.887,0.479,2.619,0.113,3.871,0.228
		c0.422-2.083,0.576-4.433,0.684-6.831C120.717,83.853,122.488,84.538,123.652,84.791z"/>
	<path fill="#010202" d="M138.68,84.108c0.414,1.864,0.303,4.251,0.684,6.147c1.15-1.884,2.102-3.968,4.098-5.009
		c0.838,0.833,1.906,1.433,2.504,2.504c-3.758,0.642-5.559,5.959-1.82,7.97c0.971-0.018,1.592-0.381,2.73-0.229
		c-0.156,1.146,0.387,1.587,0.229,2.732c-1.307,0.059-2.902-0.17-3.871,0.229c-1.203-1.453-2.662-2.651-3.643-4.327
		c-0.438,1.128-0.293,3.631,0,4.781c-1.086-0.176-1.465,0.357-2.504,0.229c-0.506-3.668-0.422-7.927-0.684-11.839
		c-0.033-0.509-0.572,0.294-1.137,0c0.127-1.04-0.404-1.419-0.229-2.506C136.295,84.607,137.244,84.115,138.68,84.108z"/>
	<path fill="#010202" d="M111.586,92.077c-3.057,0.437-6.084,0.899-9.107,1.366c0.26,4.899,5.928,1.592,8.197,0.683
		c0.91,0.38,1.154,1.427,1.594,2.277c-4.803,3.696-12.918,3.577-13.205-3.415C98.693,84.046,111.875,82.821,111.586,92.077z
		 M102.707,90.483c2.234-0.042,4.422-0.131,6.146-0.683C107.91,87.513,103.014,87.812,102.707,90.483z"/>
	<path fill="#010202" d="M98.607,98.225c-0.91,0-1.82,0-2.732,0c-0.041-3.068,0.625-9.552-2.049-8.88
		c-2.123,0.535-0.299,5.907-0.91,8.652c-1.236-0.174-1.844,0.281-2.961,0.228c-0.084-2.983,0.656-6.306,0-9.106
		c-4.154-0.21-1.727,6.164-2.959,8.879c-0.834,0-1.67,0-2.504,0c0.186-2.925,0.523-5.699,0.684-8.652
		c-0.242-0.516-1.432-0.086-2.051-0.227c0-0.911,0-1.821,0-2.733c4.182,0.51,6.76-1.376,9.336,0.684
		C98.545,84.292,98.93,92.396,98.607,98.225z"/>
	<path fill="#010202" d="M81.76,86.612c0.816,5.372,3.359,15.557-0.455,18.671c-2.576,2.103-6.605-0.317-8.424-2.733
		c0.291-0.846,1.209-1.064,1.82-1.593c1.709,0.837,2.68,2.817,4.781,2.277c2.307-0.594,1.523-3.899,1.139-6.376
		c-1.152,0.056-1.777,1.404-3.188,1.595c-5.543,0.743-5.719-6.104-5.01-11.612c0.912,0,1.822,0,2.732,0
		c0.477,2.967-1.08,7.9,1.139,8.651c3.611,1.225,4.268-4.63,3.416-8.424C80.186,86.709,81.223,86.91,81.76,86.612z"/>
	<path fill="#010202" d="M128.434,88.207c3.521-0.568,7.588,2.686,7.514,6.603c-0.137,7.224-12.742,5.656-13.205-0.228
		C122.457,90.958,125.398,88.695,128.434,88.207z M125.246,94.354c0.273,3.163,6.764,3.219,7.285,0.683
		c0.543-2.628-2.119-4.065-3.869-3.871C126.287,91.431,125.121,92.894,125.246,94.354z"/>
	<path fill="#FFFFFF" d="M108.854,89.801c-1.725,0.552-3.912,0.641-6.146,0.683C103.014,87.812,107.91,87.513,108.854,89.801z"/>
	<path fill="#FFFFFF" d="M128.662,91.166c1.75-0.194,4.412,1.242,3.869,3.871c-0.521,2.536-7.012,2.479-7.285-0.683
		C125.121,92.894,126.287,91.431,128.662,91.166z"/>
	<path fill="#FFFFFF" d="M120.01,42.443c0.797,0.312,3.096,0.087,4.098-0.684c1.23,0.137,0.979,1.756,2.049,2.049
		c3.951-1.293,4.652-7.297,10.246-5.691c1.531,0.438,2.639,3.258,3.645,4.781c1.893,2.867,5.555,5.509,3.643,8.424
		c-2.438,0.144-3.613,1.548-6.148,1.594c-2.701,2.225-3.596,6.315-3.188,10.7c0.137,1.472,0.85,2.8,0.912,4.099
		c0.064,1.394-0.738,2.851-0.457,4.1c0.918,4.079,7.365,2.667,8.424,6.146c-3.084,6.116,7.953,6.686,8.652,10.474
		c0.416,2.251-2.229,4.162-2.504,7.286c-0.184,2.073,0.939,3.871,0.227,5.464c-5.115,3.244-10.854-0.132-16.393,0.684
		c-1.535,0.226-2.48,1.432-4.781,1.138c-1.975-0.252-3.809-1.95-5.691-2.049c-2.736-0.142-5.164,1.918-7.969,1.821
		c-1.234-0.042-2.344-0.963-3.643-1.139c-3.984-0.534-7.426,2.005-10.475,1.821c-2.203-0.131-4.227-2.201-6.602-2.276
		c-2.49-0.078-3.623,1.34-6.148,1.594c-0.639,3.928-5.449,5.979-9.334,6.375c-6.34,0.646-9.686-7.194-10.246-13.206
		c-0.273-2.946,0.662-6.152-1.594-7.968c-2.613,0.662-4.445,1.489-6.83,2.504c-1.939,0.825-3.949,3.202-5.92,3.416
		c-4.089,0.44-7.058-5.739-10.473-7.515c-5.296-2.752-14.005,1.546-19.126,0.456c-3.554-4.942-3.81-13.628-3.415-21.857
		c0.677-0.917,1.194-1.994,2.05-2.732c3.469,0.662,4.227-1.389,4.781-3.643c2.058-0.296,2.465-2.24,4.554-2.505
		c0.331-2.401,1.255-4.209,1.594-6.603c1.92,0.32,1.934-1.677,3.643-0.911c2.664-3.181,8.416-3.271,11.839-5.691
		c1.753-1.471,3.851-4.528,6.603-4.326c1.438,0.105,4.074,3.062,6.375,5.236c3.037,2.871,3.754,7.565,8.652,6.83
		c0.934-0.14,1.742-0.679,2.732-1.365c0.701-0.17,0.438,0.625,1.139,0.455c2.496-0.474,1.75-3.969,4.098-4.554
		c1.506-0.375,2.979,0.74,4.326,0.456c2.207-0.467,2.25-2.451,3.416-4.555c2.383,0.575,3,2.92,4.781,4.099
		c1.344-0.022,2.479-0.93,2.959,0.456c-2.07-0.022-3.914,0.184-4.781,1.365c-1.74,0.462-4.768-0.364-5.691,0.911
		c3.313,2.017,8.289,1.568,12.521,1.821c-0.99,3.058-5.508,1.001-7.74,1.139c0.482,3.919,8.014,2.332,9.789,0
		c0.607,1.423-1.613,1.996-2.959,2.731c-1.432,0.783-3.014,1.651-3.871,2.505c2.205,2.455,4.621-1.804,7.287-1.821
		c1.342,5.715,4.367,9.749,9.563,11.611c0.945,1.991,0.057,4.713-0.684,6.375c-1.914-0.755-3.766,0.403-5.465,0.228
		c-0.988-0.102-1.584-0.894-2.504-0.91c-1.5-0.026-2.988,0.94-4.555,1.366c-0.271,0.639-0.25,1.57-0.227,2.505
		c0.348,0.715,1.746,0.379,2.73,0.455c0.402,0.306-0.371,1.317,0.229,1.822c1.797-0.444,2.389,1.771,3.871,2.048
		c2.666,0.497,5.352-2.461,6.83-4.098c2.139-2.368,5.234-3.807,4.098-9.335c3.252-0.848,7.789-0.408,9.563-2.732
		c-1.307-2.868-3.832-5.73-4.098-8.879c0.631-0.798,1.822,1.624,1.82,2.96c1.072,1.66,1.84,3.626,2.961,5.236
		c-0.084,2.362,1.48,3.073,2.049,4.781c1.104,0.275,2.105,0.769,3.188,0.456c-0.711-4.188-2.648-7.319-3.414-10.93
		c2.246,1.472,3.518,3.919,5.465,5.692c1.418,0.204,2.01-0.418,2.504-1.139c-0.283-1.008-0.885-1.696-1.139-2.732
		c0-1.214,1.197-1.23,1.139-2.504c-0.363-1.23-1.811-1.377-2.732-2.05c3.945,0.29,7.643-4.326,12.979-4.781
		c-0.191-1.313-1.455-1.206-2.277-1.365c0.111-1.028,1.568-0.71,1.139-2.277c-0.209-0.397-0.713-0.503-1.365-0.455
		c-0.586,1.969-3.1,4.855-6.375,4.098c0.859-2.898,6.771-4.427,3.869-8.196c-1.17,2.396-2.131,5.004-4.553,6.147
		c-0.793-0.151,0.066-1.464-0.229-2.504c1.371-0.982,3.445-1.263,2.959-4.099c-1.309,0.057-1.771,0.958-2.959,1.139
		c-0.275-0.711,0.121-0.98-0.455-1.595c-0.455,0-0.91,0-1.367,0c-1.107,1.244-0.844,3.861-1.82,5.237
		c-2.117,0.31-2.744,2.112-4.781,2.505c0.477,1.395,3.178,1.386,4.098,0.455c0.539,1.08-1.135,1.687-1.82,2.276
		C124.412,48.666,122.059,45.706,120.01,42.443z M84.719,54.055c-4.027,1.118-3.346,9.232-0.455,10.018
		c8.414,2.285,4.906-11.698-0.684-6.603c-0.023-3.135,5.838-0.387,5.693-3.643C87.492,54.205,86.16,53.654,84.719,54.055z
		 M35.541,58.381c0.691,0.143,1.961-0.292,2.276,0.228c0,1.745,0,3.491,0,5.236c0.431,0.403,1.504,0.165,2.277,0.228
		c0-1.897,0-3.794,0-5.691c0.758,0,1.518,0,2.276,0c0-0.531,0-1.063,0-1.594c-1.766-0.512-4.463-0.091-6.603-0.228
		C35.562,57.061,35.8,57.536,35.541,58.381z M45.331,64.301c-0.491,0.594-1.26,1.262-2.276,0.683
		c-0.176,0.858,0.277,1.088,0.228,1.821c5.893,0.202,4.71-6.674,6.83-10.246c-0.684,0-1.366,0-2.049,0
		c-0.617,1.433-0.971,3.128-1.595,4.554c-0.81-1.315-0.924-3.326-1.821-4.554c-0.683,0-1.365,0-2.049,0
		C43.353,59.296,44.627,61.512,45.331,64.301z M51.023,56.56c-0.522,2.893-0.083,6.747-0.229,10.018
		c0.415,0.348,1.862,0.348,2.278,0c0-1.063,0-2.125,0-3.188c6.531,4.112,6.33-10.445-0.229-6.147
		C53.168,56.083,51.698,56.719,51.023,56.56z M59.219,64.072c0.684,0,1.367,0,2.049,0c0.146-0.916-0.295-2.421,0.229-2.96
		c0.961,0.558,1.107,1.929,1.594,2.96c1.727-0.095,3.867,0.224,5.236-0.228c0.91-1.373,0.154-4.275,0.684-5.464
		c0.773,0.062,1.846-0.177,2.277,0.228c-0.146,1.443,0.088,3.44,0,5.464c0.682,0,1.365,0,2.049,0
		c-0.141-2.44,0.287-5.448-0.229-7.513c-2.049,0-4.098,0-6.146,0c-0.506,1.468-0.096,3.851-0.229,5.691
		c-1.063,0.106-1.348,0.147-1.594,1.365c-0.311-1.586-1.412-2.382-2.049-3.643c0.563-0.88,1.055-1.827,2.049-2.276
		c0-0.304,0-0.607,0-0.91c-2.52-1.191-2.623,1.902-3.871,2.732c0-0.987,0-1.974,0-2.96c-0.682,0-1.365,0-2.049,0
		C59.219,59.063,59.219,61.568,59.219,64.072z M73.791,57.014c1.117,2.223,2.025,4.653,2.732,7.287
		c-0.27,1.191-1.957,0.494-2.277,1.139c0.502,0.027,0.098,0.965,0.227,1.365c5.963,0.269,4.773-6.611,6.832-10.245
		c-0.684,0-1.367,0-2.051,0c-0.633,1.491-0.713,3.536-1.82,4.553c-0.27-1.702-1.002-2.944-1.367-4.553
		C75.277,56.681,73.908,56.221,73.791,57.014z M131.166,76.14c-1.881-0.74-3.908-1.538-5.92-1.822
		c-1.416-2.683-3.668-4.527-4.098-8.195c-0.814-1.246-2.471-0.316-3.871-0.229c1.711,2.313,2.203,5.844,3.871,8.196
		c-1.229,1.277-0.5,4.348,0.229,5.692c1.693,0.698,2.523-0.598,3.643-1.138c0.971,0.868,2.855,2.675,4.553,1.365
		c0.373-0.922-1.205-1.048-0.455-1.593c1.951,1.516,4.119,1.004,6.604,0.683C135.457,76.967,132.789,76.778,131.166,76.14z
		 M90.184,66.122c-0.557-0.39-1.625,0.228-2.732,0c0.07,0.979,0.016,1.837-0.91,1.821c-0.438-0.974-1.881-0.658-2.732-0.229
		C83.275,73.377,91.771,71.248,90.184,66.122z M37.817,67.032c-3.265,0.531-7.513,0.076-11.156,0.229
		c1.009,4.075,0.485,9.684,0.91,14.344c0.135,0.816-1.359,0.006-1.138,0.911c-0.162,0.844,0.389,0.976,0.228,1.821
		c1.594,0,3.188,0,4.781,0c0-0.835,0-1.671,0-2.506c-0.4-0.13-1.338,0.275-1.366-0.227c0-3.946,0-7.894,0-11.84
		c2.955-0.146,5.42,0.196,8.196,0.228C38.099,69.027,38.692,67.296,37.817,67.032z M58.08,69.765
		c-0.164,0.331-0.059,1.912,0.229,2.504c-0.109,0.573,1.043-0.548,1.139,0.229c0.012,4.011,0.232,7.813,0.455,11.611
		c0.834,0,1.67,0,2.504,0c0.207-1.653-0.314-3.776,0-4.781c1.125,1.38,2.484,2.524,3.416,4.099c1.365,0,2.732,0,4.098,0
		c-0.092-0.971,0.221-2.346-0.227-2.96c-0.971,0.017-1.594,0.381-2.732,0.228c-3.996-2.431-1.234-6.923,2.049-8.196
		c-1.145-0.449-1.404-1.784-2.732-2.05c-1.99,1.046-2.867,3.204-4.098,5.01c0.09-2.369-0.482-4.073-0.457-6.375
		C60.428,69.228,59.477,69.719,58.08,69.765z M70.375,70.903c-2.199,6.676,0.355,16.087,7.742,11.611
		c-0.035,0.564-0.043,1.104,0.455,1.138c0.764-0.525,2.5-0.079,3.643-0.227c-0.326-0.965-0.09-2.49-0.455-3.416
		c-0.807-0.257-1.295,0.957-1.822,0.229c0-3.112,0-6.223,0-9.335c-0.834,0-1.67,0-2.504,0c-0.193,4.049,0.604,10.423-3.188,9.789
		c-3.107-0.518-0.834-6.97-1.365-9.562C71.793,71.307,71.414,70.774,70.375,70.903z M89.955,82.287
		c-0.313,2.059,2.705,0.786,4.1,1.139c0.137-1.351-0.4-2.03-0.229-3.416c-0.822-0.2-1.52,0.89-2.049,0.229
		c0.102-3.007-0.232-7.419,0.229-9.335c-0.912,0-1.822,0-2.732,0c0.027,4.329,0.705,10.19-2.961,9.79
		c-3.246-0.355-1.219-6.341-1.365-9.563c-1.166,0.179-1.654-0.319-2.732-0.228C80.238,77.953,82.871,87.266,89.955,82.287z
		 M53.072,91.394c7.629,1.206,5.127-8.536,4.781-13.659c-0.061-0.891,0.156-1.836,0-2.506c-1.186-5.022-9.609-3.507-10.473,0.684
		c-1.453,7.039,3.998,10.265,8.424,6.147c0.668,2.669,1.307,6.218-1.367,6.603c-1.965,0.283-2.664-1.465-4.326-2.277
		C45.853,87.184,50.427,90.977,53.072,91.394z M41.004,74.317c-4.127-1.077-6.486,1.55-7.741,4.1
		c-1.336,6.062,5.649,6.768,8.88,4.325c0,0.38,0,0.76,0,1.139c1.873-0.175,3.565-0.533,5.464-0.683
		c-0.221-1.146-0.138-2.595-0.91-3.188c-0.685,0.388-2.316,0.755-2.96,0.456c-0.153-2.658,0.214-4.796,0.229-7.286
		c-0.987,0-1.974,0-2.961,0C41.004,73.56,41.004,73.939,41.004,74.317z M109.08,81.831c-0.125-1.264-1.328-1.846-2.504-1.365
		C102.477,82.144,109.537,86.415,109.08,81.831z M102.707,84.108c2.514-0.034,2.258-4.706-0.684-3.415
		C100.195,81.495,100.6,84.137,102.707,84.108z M119.783,84.108c-0.107,2.397-0.262,4.747-0.684,6.831
		c-1.252-0.114-2.984,0.251-3.871-0.229c0.082-2.434-0.412-4.293-0.455-6.603c-1.514,0.081-2.908,0.281-3.871,0.911
		c0.582,0.253-0.09,1.761,0.457,2.049c0.291,0.714,1.082-0.495,1.137,0.455c0.162,3.938-0.02,8.218,0.684,11.612
		c0.316-0.52,1.584-0.086,2.277-0.229c0.057-1.803-0.016-3.477-0.229-5.009c0.881-0.339,3.229-0.407,4.098,0
		c0.176,1.92-0.352,3.138-0.227,5.009c0.834,0,1.67,0,2.504,0c0.484-3.691,0.23-8.117,0.684-11.839c0.566,0.025,0.705,0.426,1.139,0
		c-0.135-0.97,0.164-1.506,0.227-2.277C122.488,84.538,120.717,83.853,119.783,84.108z M135.037,84.791
		c-0.176,1.087,0.355,1.466,0.229,2.506c0.564,0.294,1.104-0.509,1.137,0c0.262,3.912,0.178,8.171,0.684,11.839
		c1.039,0.129,1.418-0.404,2.504-0.229c-0.293-1.15-0.438-3.653,0-4.781c0.98,1.676,2.439,2.874,3.643,4.327
		c0.969-0.398,2.564-0.17,3.871-0.229c0.158-1.145-0.385-1.587-0.229-2.732c-1.139-0.152-1.76,0.211-2.73,0.229
		c-3.738-2.011-1.938-7.328,1.82-7.969c-0.598-1.072-1.666-1.672-2.504-2.504c-1.996,1.04-2.947,3.124-4.098,5.008
		c-0.381-1.896-0.27-4.282-0.684-6.147C137.244,84.115,136.295,84.607,135.037,84.791z M99.064,92.988
		c0.287,6.992,8.402,7.111,13.205,3.415c-0.439-0.851-0.684-1.897-1.594-2.277c-2.27,0.909-7.938,4.217-8.197-0.683
		c3.023-0.467,6.051-0.93,9.107-1.366C111.875,82.821,98.693,84.046,99.064,92.988z M92.461,87.068
		c-2.576-2.059-5.154-0.174-9.336-0.684c0,0.912,0,1.822,0,2.733c0.619,0.141,1.807-0.289,2.051,0.227
		c-0.16,2.953-0.498,5.728-0.684,8.652c0.834,0,1.67,0,2.504,0c1.232-2.715-1.195-9.089,2.959-8.879
		c0.656,2.801-0.084,6.123,0,9.106c1.117,0.054,1.725-0.401,2.961-0.228c0.611-2.745-1.213-8.117,0.91-8.652
		c2.674-0.672,2.008,5.812,2.049,8.88c0.912,0,1.822,0,2.732,0C98.93,92.396,98.545,84.292,92.461,87.068z M79.711,87.068
		c0.852,3.794,0.195,9.648-3.416,8.424c-2.219-0.751-0.662-5.685-1.139-8.651c-0.91,0-1.82,0-2.732,0
		c-0.709,5.509-0.533,12.355,5.01,11.612c1.41-0.19,2.035-1.539,3.188-1.595c0.385,2.477,1.168,5.782-1.139,6.376
		c-2.102,0.54-3.074-1.44-4.781-2.277c-0.611,0.528-1.529,0.748-1.82,1.593c1.818,2.416,5.848,4.836,8.424,2.733
		c3.814-3.114,1.271-13.299,0.455-18.671C81.223,86.91,80.186,86.709,79.711,87.068z M122.742,94.582
		c0.463,5.884,13.07,7.45,13.205,0.228c0.074-3.917-3.992-7.171-7.514-6.603C125.398,88.695,122.457,90.958,122.742,94.582z"/>
</g>
</svg>
