<?xml version="1.0" encoding="utf-8"?>
<!-- Generator: Adobe Illustrator 15.0.0, SVG Export Plug-In . SVG Version: 6.00 Build 0)  -->
<!DOCTYPE svg PUBLIC "-//W3C//DTD SVG 1.1//EN" "http://www.w3.org/Graphics/SVG/1.1/DTD/svg11.dtd">
<svg version="1.1" id="Слой_1" xmlns="http://www.w3.org/2000/svg" xmlns:xlink="http://www.w3.org/1999/xlink" x="0px" y="0px"
	 width="170.08px" height="113.391px" viewBox="0 0 170.08 113.391" enable-background="new 0 0 170.08 113.391"
	 xml:space="preserve">
<rect x="28.874" y="0" fill="#FFFFFF" stroke="#FFFFFF" stroke-miterlimit="10" width="113.391" height="113.391"/>
<g>
	<path fill="#EDBE26" stroke="#100BD6" stroke-width="0.5" stroke-miterlimit="10" d="M98.857,15.505c0.676,0,1.351,0,2.026,0
		c4.536,0.786,7.791,3.999,9.305,7.613c2.792,6.657-5.104,14.039-1.353,20.299c1.627-0.133,3.535,0.501,4.738-0.676
		c0.942,0.074,0.787,1.243,1.521,1.522c2.667-1.007,2.829-2.99,5.245-3.551c4.076-0.948,5.879,3.627,7.782,6.089
		c1.233,1.599,2.673,3.058,2.535,4.567c-0.191,2.167-2.933,2.872-5.242,3.384c-3.157,2.161-2.467,5.637-2.031,9.473
		c0.1,0.859-0.206,1.861,0,2.707c0.729,2.988,5.435,2.928,6.261,5.412c-1.445,5.215,4.994,5.039,6.765,8.121
		c0,0.395,0,0.789,0,1.184c-0.361,1.695-1.601,2.553-1.859,4.398c-0.408,2.895,1.332,5.34-2.2,5.922
		c-3.238,0.531-7.072-1.031-10.487-0.508c-1.311,0.199-2.701,1.49-4.06,1.521c-1.528,0.033-3.053-1.568-4.908-1.691
		c-1.982-0.131-4.213,1.408-6.258,1.354c-0.885-0.023-1.805-0.684-3.045-0.846c-3.086-0.406-6.237,1.732-8.797,1.352
		c-1.774-0.262-3.192-1.672-4.737-1.521c-0.585,0.057-3.009,1.17-3.552,1.691c-0.732,0.703-0.634,2.057-1.522,2.875
		c-1.218,1.123-2.95,0.779-4.906,1.016c-2.202,0.266-3.876,0.783-5.582-0.508c-2.208-1.672-4.414-6.373-4.568-9.98
		c-0.073-1.699,0.874-3.6-0.676-4.736c-2.153,0.66-4.332,1.49-6.09,2.537c-0.847,0.504-2.002,1.807-3.045,1.861
		c-2.778,0.141-5.799-4.891-7.951-5.92c-4.608-2.209-8.919,1.09-14.549,0.506c-2.705-2.709-2.65-8.176-3.383-12.855
		c0-1.242,0-2.482,0-3.723c0.157-3.057,0.413-6.016,4.228-5.413c0.966-1.571,1.511-3.565,3.891-3.723
		c0.63-1.511,1.02-3.265,1.522-4.905c1.334-0.278,1.875-1.143,3.214-1.016c2-2.778,5.703-1.855,8.626-4.06
		c1.84-1.386,4.267-4.86,6.429-4.736c0.962,0.054,2.399,1.632,3.383,2.537c1.035,0.952,2.232,1.961,3.045,2.875
		c1.656,1.859,2.047,3.99,4.567,4.399c0.916-0.626,1.981-0.624,2.876-0.509c1.203-1.035,0.956-2.547,2.369-3.213
		c1.079-0.512,2.031,0.204,3.214,0c2.038-0.354,2.005-2.161,3.382-3.552c1.674,0.052,2.074,2.625,3.723,3.214
		c0.497,0.177,1.191-0.152,1.861,0c1.121,0.253,1.83,1.313,2.706,1.353c0.865,0.04,4.54-1.07,5.245-1.523
		c1.28-0.823,2.043-3.743,2.535-5.413c0.634-2.135,1.109-5.02,0-6.766c-2.479-0.338-3.418-2.219-5.412-3.045
		c-1.443,0.756-2.18,2.928-4.398,2.369c-0.669-0.346-0.358-1.671-0.676-2.369c-1.614-0.473-3.331-0.842-3.214-3.045
		c0.903-0.541,2.234,0.306,3.044-0.169c0.146-1.176-0.838-1.533-1.013-2.708C88.521,19.236,94.194,16.296,98.857,15.505z
		 M106.131,39.357c-0.403-5.407,3.444-9.69,2.537-15.225c-0.476-2.905-3.823-6.219-6.767-6.935c-5.221-1.272-9.763,2.196-9.98,6.935
		c0.432,1.028,1.268,0.75,2.368,1.353c0.946,0.517,1.411,1.34,2.028,1.523c0.725,0.214,1.557-0.161,2.37,0
		c1.462,0.288,2.825,1.875,4.735,1.353c-1.915,1.244-5.115,1.199-7.272,2.199c-0.002,0.678,0.791,0.562,1.014,1.015
		c1.527-1.233,5.541,0.588,6.767-1.184c-0.247-2,1.728-3.793,3.214-2.029c0.647,2.626-2.285,3.564-2.875,4.905
		c-0.561,1.266,0.077,3.156-0.172,4.567c-0.201,1.165-0.705,2.601-1.015,3.722c-1.448,5.261-3.238,6.444-8.627,7.951
		c1.515-0.559,2.503,0.426,2.877,1.522c-1.607,3.971-0.091,8.346,2.874,9.98c2.553,1.406,5.466,0.355,8.459,1.016
		c-0.303-3.025-2.893-4.664-2.198-8.12c1.662-0.046,2.051-0.073,3.551-0.676c-0.05-0.793-1.005-0.684-1.183-1.354
		c0.359-0.71,1.284-0.86,1.522-1.69C108.438,47.139,106.458,43.761,106.131,39.357z M115.266,52.383
		c0.511-0.439,1.752-0.888,1.353-1.692c-0.685,0.691-2.691,0.699-3.044-0.338c1.512-0.291,1.976-1.63,3.551-1.861
		c0.727-1.021,0.529-2.967,1.353-3.89c0.339,0,0.676,0,1.016,0c0.43,0.456,0.135,0.656,0.339,1.184
		c0.88-0.133,1.226-0.803,2.198-0.846c0.359,2.108-1.179,2.316-2.198,3.045c0.22,0.772-0.42,1.75,0.168,1.861
		c1.801-0.851,2.515-2.787,3.385-4.567c2.156,2.802-2.236,3.937-2.876,6.089c2.435,0.563,4.302-1.582,4.735-3.045
		c0.486-0.036,0.86,0.043,1.016,0.338c0.321,1.165-0.763,0.928-0.846,1.692c0.611,0.118,1.55,0.038,1.691,1.015
		c-3.963,0.338-6.71,3.766-9.644,3.552c0.685,0.5,1.761,0.607,2.031,1.522c0.044,0.946-0.846,0.959-0.846,1.861
		c0.188,0.77,0.636,1.28,0.846,2.029c-0.367,0.535-0.808,0.998-1.861,0.846c-1.445-1.316-2.391-3.136-4.06-4.229
		c0.569,2.683,2.009,5.008,2.535,8.119c-0.804,0.234-1.548-0.133-2.368-0.338c-0.424-1.268-1.584-1.797-1.521-3.553
		c-0.832-1.195-1.403-2.655-2.199-3.89c0-0.993-0.884-2.791-1.353-2.2c0.196,2.341,2.073,4.466,3.045,6.597
		c-1.318,1.727-4.689,1.4-7.106,2.031c0.846,4.105-1.455,5.176-3.044,6.936c-1.099,1.217-3.093,3.414-5.074,3.043
		c-1.102-0.203-1.541-1.85-2.876-1.521c-0.446-0.375,0.13-1.127-0.171-1.352c-0.731-0.057-1.771,0.191-2.027-0.34
		c-0.019-0.693-0.033-1.385,0.168-1.859c1.164-0.318,2.269-1.037,3.384-1.016c0.684,0.012,1.126,0.602,1.86,0.676
		c1.262,0.131,2.637-0.729,4.059-0.168c0.553-1.236,1.213-3.26,0.51-4.738c-3.859-1.383-6.108-4.381-7.104-8.626
		c-1.979,0.013-3.775,3.176-5.412,1.354c0.634-0.635,1.811-1.28,2.873-1.861c1.002-0.547,2.651-0.973,2.201-2.03
		c-1.319,1.733-6.918,2.912-7.273,0c1.658-0.102,5.014,1.425,5.751-0.846c-3.145-0.188-6.844,0.145-9.306-1.354
		c0.688-0.948,2.938-0.334,4.231-0.676c0.643-0.878,2.013-1.03,3.551-1.014c-0.357-1.031-1.199-0.355-2.2-0.338
		c-1.322-0.876-1.778-2.617-3.551-3.045c-0.866,1.563-0.896,3.037-2.538,3.383c-1.003,0.211-2.095-0.618-3.214-0.338
		c-1.744,0.435-1.19,3.031-3.046,3.383c-0.52,0.126-0.324-0.464-0.844-0.339c-0.737,0.512-1.336,0.912-2.03,1.015
		c-3.64,0.545-4.172-2.941-6.429-5.074c-1.709-1.617-3.67-3.813-4.737-3.891c-2.044-0.15-3.604,2.122-4.906,3.215
		c-2.544,1.796-6.817,1.865-8.797,4.227c-1.269-0.568-1.28,0.916-2.707,0.677c-0.252,1.78-0.938,3.121-1.184,4.907
		c-1.551,0.196-1.854,1.641-3.384,1.86c-0.412,1.676-0.975,3.197-3.552,2.707c-0.634,0.549-1.02,1.348-1.522,2.029
		c-0.293,6.115-0.103,12.568,2.538,16.24c3.805,0.811,10.275-2.383,14.209-0.338c2.538,1.316,4.744,5.908,7.782,5.582
		c1.463-0.158,2.957-1.926,4.398-2.537c1.772-0.754,3.131-1.369,5.075-1.861c1.676,1.348,0.979,3.73,1.184,5.92
		c0.415,4.467,2.902,10.293,7.612,9.813c2.886-0.295,6.459-1.818,6.934-4.736c1.875-0.189,2.719-1.242,4.568-1.184
		c1.766,0.055,3.269,1.592,4.904,1.689c2.268,0.139,4.823-1.748,7.784-1.352c0.965,0.129,1.787,0.814,2.707,0.846
		c2.084,0.072,3.887-1.459,5.921-1.354c1.397,0.074,2.76,1.336,4.228,1.523c1.71,0.217,2.412-0.678,3.553-0.848
		c4.114-0.605,8.378,1.904,12.18-0.506c0.528-1.184-0.305-2.521-0.17-4.061c0.204-2.32,2.17-3.74,1.861-5.414
		c-0.519-2.814-8.719-3.236-6.428-7.781c-0.787-2.586-5.578-1.537-6.26-4.568c-0.208-0.926,0.388-2.01,0.339-3.043
		c-0.047-0.967-0.575-1.953-0.676-3.047c-0.304-3.258,0.361-6.298,2.367-7.95c1.884-0.034,2.758-1.077,4.568-1.184
		c1.422-2.167-1.3-4.129-2.707-6.259c-0.749-1.132-1.568-3.227-2.709-3.553c-4.154-1.191-4.676,3.269-7.612,4.229
		c-0.796-0.218-0.607-1.421-1.522-1.522c-0.743,0.571-2.453,0.738-3.044,0.507C111.376,48.379,113.122,50.578,115.266,52.383z"/>
	<path fill="#EDBE26" stroke="#100BD6" stroke-width="0.5" stroke-miterlimit="10" d="M100.041,25.825
		c-0.748,0.605-2.397,0.309-3.045,1.014C93.465,24.64,100.002,22.002,100.041,25.825z"/>
	<path fill="#EDBE26" stroke="#100BD6" stroke-width="0.5" stroke-miterlimit="10" d="M87.015,54.413
		c0.108,2.419-4.248,0.377-4.229,2.707c4.153-3.787,6.761,6.603,0.509,4.905c-2.148-0.584-2.654-6.612,0.338-7.443
		C84.703,54.285,85.692,54.694,87.015,54.413z M83.294,58.472c-0.165,1.461,0.081,2.512,1.691,2.199
		C86.486,59.402,84.54,56.556,83.294,58.472z"/>
	<path fill="#EDBE26" stroke="#100BD6" stroke-width="0.5" stroke-miterlimit="10" d="M47.262,56.443
		c1.59,0.103,3.593-0.211,4.906,0.169c0,0.396,0,0.79,0,1.185c-0.564,0-1.128,0-1.691,0c0,1.41,0,2.818,0,4.229
		c-0.574-0.045-1.372,0.131-1.691-0.17c0-1.295,0-2.592,0-3.889c-0.235-0.387-1.178-0.064-1.691-0.17
		C47.286,57.168,47.109,56.816,47.262,56.443z"/>
	<path fill="#EDBE26" stroke="#100BD6" stroke-width="0.5" stroke-miterlimit="10" d="M52.337,56.443c0.508,0,1.015,0,1.522,0
		c0.667,0.912,0.752,2.404,1.353,3.383c0.464-1.059,0.727-2.318,1.186-3.383c0.507,0,1.015,0,1.522,0
		c-1.575,2.653-0.697,7.762-5.074,7.611c0.037-0.543-0.3-0.715-0.169-1.352c0.755,0.43,1.326-0.066,1.691-0.508
		C53.844,60.123,52.897,58.476,52.337,56.443z"/>
	<path fill="#EDBE26" stroke="#100BD6" stroke-width="0.5" stroke-miterlimit="10" d="M59.95,56.951
		c4.873-3.194,5.022,7.623,0.17,4.566c0,0.789,0,1.578,0,2.369c-0.309,0.258-1.384,0.258-1.693,0c0.109-2.43-0.218-5.295,0.17-7.443
		C59.098,56.562,60.19,56.089,59.95,56.951z M60.119,58.302c-0.127,1.425,0.019,2.576,1.352,2.537
		C63.19,59.933,61.509,56.161,60.119,58.302z"/>
	<path fill="#EDBE26" stroke="#100BD6" stroke-width="0.5" stroke-miterlimit="10" d="M64.686,56.443c0.508,0,1.016,0,1.522,0
		c0,0.732,0,1.467,0,2.2c0.927-0.616,1.004-2.916,2.876-2.031c0,0.226,0,0.451,0,0.677c-0.739,0.334-1.104,1.037-1.523,1.691
		c0.474,0.938,1.292,1.527,1.523,2.707c0.182-0.904,0.394-0.936,1.184-1.016c0.099-1.367-0.206-3.138,0.17-4.227
		c1.522,0,3.045,0,4.566,0c0.384,1.533,0.065,3.768,0.17,5.582c-0.508,0-1.015,0-1.522,0c0.065-1.504-0.108-2.988,0-4.061
		c-0.321-0.301-1.117-0.123-1.692-0.17c-0.393,0.883,0.169,3.039-0.508,4.061c-1.018,0.334-2.608,0.1-3.891,0.17
		c-0.361-0.768-0.47-1.785-1.184-2.2c-0.389,0.401-0.061,1.519-0.17,2.2c-0.506,0-1.014,0-1.522,0
		C64.686,60.164,64.686,58.302,64.686,56.443z"/>
	<path fill="#EDBE26" stroke="#100BD6" stroke-width="0.5" stroke-miterlimit="10" d="M77.204,56.443
		c0.271,1.195,0.815,2.118,1.015,3.383c0.823-0.755,0.883-2.275,1.352-3.383c0.508,0,1.016,0,1.524,0
		c-1.53,2.701-0.646,7.813-5.076,7.611c-0.096-0.297,0.205-0.994-0.168-1.014c0.238-0.479,1.492,0.039,1.692-0.846
		c-0.525-1.957-1.2-3.763-2.03-5.414C75.6,56.191,76.616,56.533,77.204,56.443z"/>
	<path fill="#EDBE26" stroke="#100BD6" stroke-width="0.5" stroke-miterlimit="10" d="M121.525,73.191
		c-1.845,0.236-3.456,0.617-4.907-0.508c-0.557,0.404,0.616,0.498,0.337,1.184c-1.26,0.973-2.66-0.369-3.381-1.016
		c-0.832,0.402-1.45,1.365-2.709,0.846c-0.539-0.998-1.08-3.281-0.168-4.229c-1.241-1.75-1.606-4.371-2.877-6.09
		c1.04-0.064,2.271-0.756,2.877,0.17c0.319,2.727,1.992,4.098,3.044,6.09c1.494,0.211,3.002,0.803,4.399,1.354
		C119.348,71.465,121.328,71.605,121.525,73.191z"/>
	<path fill="#EDBE26" stroke="#100BD6" stroke-width="0.5" stroke-miterlimit="10" d="M82.956,64.73
		c0.631-0.318,1.705-0.551,2.03,0.172c0.688,0.012,0.728-0.625,0.677-1.354c0.821,0.17,1.616-0.289,2.028,0
		C88.87,67.355,82.559,68.937,82.956,64.73z"/>
	<path fill="#EDBE26" stroke="#100BD6" stroke-width="0.5" stroke-miterlimit="10" d="M49.123,66.424
		c-2.063-0.023-3.894-0.279-6.089-0.17c0,2.932,0,5.865,0,8.797c0.021,0.373,0.717,0.072,1.015,0.168c0,0.621,0,1.242,0,1.863
		c-1.184,0-2.368,0-3.552,0c0.119-0.629-0.291-0.727-0.17-1.354c-0.165-0.672,0.945-0.07,0.846-0.678
		c-0.315-3.461,0.074-7.629-0.676-10.656c2.707-0.113,5.864,0.225,8.288-0.17C49.435,64.42,48.994,65.705,49.123,66.424z"/>
	<path fill="#EDBE26" stroke="#100BD6" stroke-width="0.5" stroke-miterlimit="10" d="M66.546,65.748
		c-0.019,1.709,0.406,2.975,0.338,4.734c0.915-1.34,1.567-2.943,3.046-3.721c0.987,0.197,1.18,1.189,2.03,1.521
		c-2.439,0.947-4.491,4.285-1.522,6.092c0.846,0.113,1.309-0.158,2.029-0.172c0.333,0.457,0.101,1.479,0.169,2.199
		c-1.014,0-2.03,0-3.044,0c-0.692-1.168-1.703-2.02-2.538-3.045c-0.235,0.748,0.153,2.324,0,3.553c-0.62,0-1.241,0-1.86,0
		c-0.166-2.822-0.329-5.648-0.338-8.627c-0.071-0.576-0.929,0.258-0.846-0.168c-0.213-0.441-0.292-1.615-0.17-1.861
		C64.877,66.22,65.584,65.855,66.546,65.748z"/>
	<path fill="#EDBE26" stroke="#100BD6" stroke-width="0.5" stroke-miterlimit="10" d="M74.836,67.269
		c0.395,1.926-1.294,6.719,1.014,7.105c2.817,0.471,2.225-4.266,2.369-7.273c0.62,0,1.241,0,1.86,0c0,2.313,0,4.623,0,6.936
		c0.392,0.541,0.755-0.359,1.354-0.17c0.271,0.688,0.096,1.82,0.338,2.537c-0.85,0.109-2.139-0.223-2.707,0.17
		c-0.37-0.025-0.364-0.428-0.338-0.846c-5.489,3.326-7.386-3.668-5.752-8.627C73.746,67.004,74.028,67.4,74.836,67.269z"/>
	<path fill="#EDBE26" stroke="#100BD6" stroke-width="0.5" stroke-miterlimit="10" d="M81.771,67.099
		c0.801-0.066,1.163,0.303,2.029,0.17c0.108,2.395-1.397,6.84,1.015,7.105c2.724,0.297,2.219-4.057,2.199-7.273
		c0.676,0,1.353,0,2.03,0c-0.343,1.422-0.095,4.701-0.169,6.936c0.393,0.49,0.91-0.318,1.521-0.17
		c-0.128,1.029,0.271,1.533,0.17,2.537c-1.035-0.262-3.278,0.684-3.046-0.846C82.258,79.258,80.302,72.338,81.771,67.099z"/>
	<path fill="#EDBE26" stroke="#100BD6" stroke-width="0.5" stroke-miterlimit="10" d="M57.919,78.603
		c1.234,0.604,1.754,1.902,3.214,1.691c1.986-0.287,1.512-2.922,1.016-4.906c-3.288,3.059-7.338,0.662-6.259-4.566
		c0.642-3.113,6.9-4.24,7.781-0.508c0.115,0.496-0.046,1.199,0,1.861c0.257,3.807,2.116,11.045-3.552,10.148
		C58.153,82.015,54.755,79.197,57.919,78.603z M58.765,74.375c2.303,0.682,3.535-1.791,2.876-4.061
		C59.197,67.969,56.778,72.312,58.765,74.375z"/>
	<path fill="#EDBE26" stroke="#100BD6" stroke-width="0.5" stroke-miterlimit="10" d="M51.152,68.793c0.733,0,1.467,0,2.199,0
		c-0.01,1.85-0.283,3.438-0.169,5.412c0.479,0.223,1.69-0.049,2.199-0.338c0.573,0.441,0.512,1.518,0.676,2.367
		c-1.411,0.111-2.668,0.377-4.06,0.508c0-0.281,0-0.564,0-0.846c-2.399,1.814-7.59,1.291-6.597-3.213
		c0.932-1.895,2.685-3.846,5.751-3.047C51.152,69.355,51.152,69.074,51.152,68.793z M47.431,73.697
		c0.322,1.814,3.508,1.209,4.06-0.338C50.979,70.687,47.028,71.414,47.431,73.697z"/>
	<path fill="#EDBE26" stroke="#100BD6" stroke-width="0.5" stroke-miterlimit="10" d="M99.871,74.205
		c0.874-0.357,1.769,0.076,1.861,1.014C102.071,78.625,96.826,75.453,99.871,74.205z"/>
	<path fill="#EDBE26" stroke="#100BD6" stroke-width="0.5" stroke-miterlimit="10" d="M96.487,74.375
		c2.187-0.961,2.376,2.512,0.509,2.535C95.432,76.933,95.129,74.97,96.487,74.375z"/>
	<path fill="#EDBE26" stroke="#100BD6" stroke-width="0.5" stroke-miterlimit="10" d="M112.557,77.418
		c-0.047,0.574-0.267,0.973-0.168,1.693c-0.32,0.316-0.426,0.018-0.846,0c-0.337,2.766-0.147,6.053-0.509,8.795
		c-0.617,0-1.239,0-1.859,0c-0.093-1.389,0.299-2.295,0.168-3.721c-0.646-0.303-2.391-0.252-3.044,0
		c0.159,1.139,0.212,2.383,0.169,3.721c-0.515,0.105-1.455-0.217-1.691,0.17c-0.523-2.521-0.386-5.703-0.507-8.627
		c-0.042-0.707-0.63,0.191-0.847-0.338c-0.407-0.215,0.093-1.334-0.338-1.521c0.714-0.469,1.75-0.617,2.876-0.678
		c0.032,1.717,0.398,3.098,0.338,4.906c0.66,0.357,1.945,0.084,2.876,0.17c0.313-1.547,0.429-3.293,0.507-5.076
		C110.376,76.722,111.692,77.23,112.557,77.418z"/>
	<path fill="#EDBE26" stroke="#100BD6" stroke-width="0.5" stroke-miterlimit="10" d="M123.725,76.91
		c0.307,1.387,0.224,3.158,0.506,4.568c0.856-1.4,1.563-2.949,3.047-3.723c0.622,0.619,1.415,1.066,1.859,1.861
		c-2.792,0.477-4.131,4.428-1.353,5.922c0.723-0.014,1.183-0.283,2.028-0.17c-0.115,0.852,0.287,1.178,0.17,2.029
		c-0.971,0.043-2.156-0.127-2.877,0.17c-0.893-1.08-1.977-1.969-2.705-3.215c-0.325,0.838-0.218,2.697,0,3.553
		c-0.808-0.131-1.088,0.266-1.861,0.17c-0.375-2.727-0.313-5.891-0.507-8.797c-0.024-0.377-0.426,0.219-0.846,0
		c0.095-0.773-0.299-1.055-0.17-1.861C121.952,77.283,122.656,76.916,123.725,76.91z"/>
	<path fill="#EDBE26" stroke="#100BD6" stroke-width="0.5" stroke-miterlimit="10" d="M103.594,82.832
		c-2.272,0.324-4.521,0.668-6.767,1.016c0.193,3.639,4.404,1.182,6.09,0.506c0.677,0.283,0.858,1.061,1.185,1.691
		c-3.568,2.748-9.598,2.658-9.811-2.535C94.014,76.865,103.808,75.955,103.594,82.832z M96.996,81.648
		c1.659-0.031,3.285-0.098,4.566-0.508C100.862,79.441,97.225,79.664,96.996,81.648z"/>
	<path fill="#EDBE26" stroke="#100BD6" stroke-width="0.5" stroke-miterlimit="10" d="M93.95,87.4c-0.677,0-1.353,0-2.029,0
		c-0.031-2.279,0.464-7.098-1.523-6.598c-1.576,0.396-0.222,4.389-0.676,6.428c-0.918-0.129-1.371,0.209-2.199,0.17
		c-0.063-2.217,0.486-4.686,0-6.766c-3.087-0.156-1.284,4.58-2.199,6.596c-0.619,0-1.24,0-1.86,0
		c0.137-2.172,0.387-4.234,0.507-6.428c-0.18-0.383-1.063-0.063-1.523-0.168c0-0.678,0-1.354,0-2.031
		c3.107,0.379,5.022-1.021,6.937,0.51C93.903,77.047,94.19,83.068,93.95,87.4z"/>
	<path fill="#EDBE26" stroke="#100BD6" stroke-width="0.5" stroke-miterlimit="10" d="M81.433,78.771
		c0.607,3.992,2.496,11.559-0.338,13.873c-1.914,1.563-4.907-0.236-6.259-2.031c0.216-0.629,0.898-0.791,1.352-1.184
		c1.27,0.621,1.991,2.094,3.552,1.691c1.714-0.439,1.132-2.896,0.847-4.736c-0.856,0.041-1.321,1.043-2.369,1.184
		c-4.118,0.553-4.249-4.533-3.723-8.627c0.678,0,1.354,0,2.03,0c0.355,2.205-0.802,5.869,0.847,6.428
		c2.683,0.91,3.171-3.439,2.538-6.258C80.264,78.844,81.034,78.994,81.433,78.771z"/>
	<path fill="#EDBE26" stroke="#100BD6" stroke-width="0.5" stroke-miterlimit="10" d="M116.111,79.957
		c2.616-0.422,5.639,1.996,5.582,4.906c-0.101,5.367-9.466,4.201-9.812-0.17C111.67,82,113.854,80.32,116.111,79.957z
		 M113.741,84.523c0.204,2.352,5.027,2.393,5.415,0.508c0.401-1.953-1.575-3.02-2.875-2.877
		C114.517,82.351,113.648,83.439,113.741,84.523z"/>
</g>
</svg>
